%
M48
M72
T01C0.01500
T02C0.01969
T03C0.02362
T04C0.03937
T05C0.04000
T06C0.04331
T07C0.11024
%
T01
X94300Y84000
X106800Y84000
X116800Y91500
X116800Y101500
X106800Y111500
X129300Y96500
X134300Y104000
X146800Y101500
X156800Y101500
X159300Y116000
X159300Y124000
X159800Y146500
X139300Y144000
X192800Y109000
X192100Y102800
X201800Y129000
X201800Y144000
X246800Y141500
X246800Y176500
X224300Y71500
X224300Y51500
X219300Y39000
X166800Y51500
X166800Y66500
X116800Y76500
T02
X239300Y101500
T03
X237800Y87500
X251800Y71100
X251800Y51900
X210300Y113000
X189300Y90000
X164300Y106500
X161800Y89000
X141800Y89000
X171300Y124000
X209300Y186500
X226800Y186500
X231800Y176500
X231800Y141500
X246800Y131500
T04
X209300Y176500
T05
X211800Y201500
X201800Y201500
X191800Y201500
X181800Y201500
X165800Y201500
X155800Y201500
X145800Y201500
X135800Y201500
X125800Y201500
X115800Y201500
X105800Y201500
X95800Y201500
X85800Y201500
X75800Y201500
X74300Y169000
X74300Y159000
X74300Y149000
X64300Y149000
X64300Y159000
X64300Y169000
X101800Y59000
X111800Y59000
X111800Y11500
X121800Y11500
X131800Y11500
X141800Y11500
X151800Y11500
X161800Y11500
X171800Y11500
X181800Y11500
X201800Y11500
X211800Y11500
X221800Y11500
X231800Y11500
X241800Y11500
X251800Y11500
X252300Y101500
X252300Y111500
X252300Y121500
X262300Y121500
X262300Y111500
X262300Y101500
X239300Y184000
X241800Y201500
X231800Y201500
X221800Y201500
X251800Y201500
T06
X141800Y224000
X131800Y224000
T07
X36800Y269000
X236800Y269000
M30
