G75*
%MOIN*%
%OFA0B0*%
%FSLAX25Y25*%
%IPPOS*%
%LPD*%
%AMOC8*
5,1,8,0,0,1.08239X$1,22.5*
%
%ADD10C,0.01000*%
%ADD11C,0.01600*%
D10*
X0001800Y0005437D02*
X0001800Y0207563D01*
X0001802Y0207687D01*
X0001808Y0207810D01*
X0001817Y0207934D01*
X0001831Y0208056D01*
X0001848Y0208179D01*
X0001870Y0208301D01*
X0001895Y0208422D01*
X0001924Y0208542D01*
X0001956Y0208661D01*
X0001993Y0208780D01*
X0002033Y0208897D01*
X0002076Y0209012D01*
X0002124Y0209127D01*
X0002175Y0209239D01*
X0002229Y0209350D01*
X0002287Y0209460D01*
X0002348Y0209567D01*
X0002413Y0209673D01*
X0002481Y0209776D01*
X0002552Y0209877D01*
X0002626Y0209976D01*
X0002703Y0210073D01*
X0002784Y0210167D01*
X0002867Y0210258D01*
X0002953Y0210347D01*
X0003042Y0210433D01*
X0003133Y0210516D01*
X0003227Y0210597D01*
X0003324Y0210674D01*
X0003423Y0210748D01*
X0003524Y0210819D01*
X0003627Y0210887D01*
X0003733Y0210952D01*
X0003840Y0211013D01*
X0003950Y0211071D01*
X0004061Y0211125D01*
X0004173Y0211176D01*
X0004288Y0211224D01*
X0004403Y0211267D01*
X0004520Y0211307D01*
X0004639Y0211344D01*
X0004758Y0211376D01*
X0004878Y0211405D01*
X0004999Y0211430D01*
X0005121Y0211452D01*
X0005244Y0211469D01*
X0005366Y0211483D01*
X0005490Y0211492D01*
X0005613Y0211498D01*
X0005737Y0211500D01*
X0255800Y0211500D01*
X0261800Y0205500D01*
X0261800Y0160500D01*
X0271800Y0150500D01*
X0271800Y0021500D01*
X0261800Y0011500D01*
X0261800Y0005437D01*
X0261798Y0005313D01*
X0261792Y0005190D01*
X0261783Y0005066D01*
X0261769Y0004944D01*
X0261752Y0004821D01*
X0261730Y0004699D01*
X0261705Y0004578D01*
X0261676Y0004458D01*
X0261644Y0004339D01*
X0261607Y0004220D01*
X0261567Y0004103D01*
X0261524Y0003988D01*
X0261476Y0003873D01*
X0261425Y0003761D01*
X0261371Y0003650D01*
X0261313Y0003540D01*
X0261252Y0003433D01*
X0261187Y0003327D01*
X0261119Y0003224D01*
X0261048Y0003123D01*
X0260974Y0003024D01*
X0260897Y0002927D01*
X0260816Y0002833D01*
X0260733Y0002742D01*
X0260647Y0002653D01*
X0260558Y0002567D01*
X0260467Y0002484D01*
X0260373Y0002403D01*
X0260276Y0002326D01*
X0260177Y0002252D01*
X0260076Y0002181D01*
X0259973Y0002113D01*
X0259867Y0002048D01*
X0259760Y0001987D01*
X0259650Y0001929D01*
X0259539Y0001875D01*
X0259427Y0001824D01*
X0259312Y0001776D01*
X0259197Y0001733D01*
X0259080Y0001693D01*
X0258961Y0001656D01*
X0258842Y0001624D01*
X0258722Y0001595D01*
X0258601Y0001570D01*
X0258479Y0001548D01*
X0258356Y0001531D01*
X0258234Y0001517D01*
X0258110Y0001508D01*
X0257987Y0001502D01*
X0257863Y0001500D01*
X0005737Y0001500D01*
X0005613Y0001502D01*
X0005490Y0001508D01*
X0005366Y0001517D01*
X0005244Y0001531D01*
X0005121Y0001548D01*
X0004999Y0001570D01*
X0004878Y0001595D01*
X0004758Y0001624D01*
X0004639Y0001656D01*
X0004520Y0001693D01*
X0004403Y0001733D01*
X0004288Y0001776D01*
X0004173Y0001824D01*
X0004061Y0001875D01*
X0003950Y0001929D01*
X0003840Y0001987D01*
X0003733Y0002048D01*
X0003627Y0002113D01*
X0003524Y0002181D01*
X0003423Y0002252D01*
X0003324Y0002326D01*
X0003227Y0002403D01*
X0003133Y0002484D01*
X0003042Y0002567D01*
X0002953Y0002653D01*
X0002867Y0002742D01*
X0002784Y0002833D01*
X0002703Y0002927D01*
X0002626Y0003024D01*
X0002552Y0003123D01*
X0002481Y0003224D01*
X0002413Y0003327D01*
X0002348Y0003433D01*
X0002287Y0003540D01*
X0002229Y0003650D01*
X0002175Y0003761D01*
X0002124Y0003873D01*
X0002076Y0003988D01*
X0002033Y0004103D01*
X0001993Y0004220D01*
X0001956Y0004339D01*
X0001924Y0004458D01*
X0001895Y0004578D01*
X0001870Y0004699D01*
X0001848Y0004821D01*
X0001831Y0004944D01*
X0001817Y0005066D01*
X0001808Y0005190D01*
X0001802Y0005313D01*
X0001800Y0005437D01*
D11*
X0001800Y0214000D02*
X0271800Y0214000D01*
X0271800Y0324000D01*
X0001800Y0324000D01*
X0001800Y0214000D01*
M02*
