G75*
%MOIN*%
%OFA0B0*%
%FSLAX25Y25*%
%IPPOS*%
%LPD*%
%AMOC8*
5,1,8,0,0,1.08239X$1,22.5*
%
%ADD10C,0.01000*%
%ADD11C,0.01600*%
%ADD12R,0.02165X0.04724*%
%ADD13R,0.08661X0.02362*%
%ADD14R,0.02362X0.08661*%
%ADD15C,0.06000*%
%ADD16R,0.03937X0.04331*%
%ADD17OC8,0.06000*%
%ADD18R,0.05906X0.05118*%
%ADD19R,0.05118X0.05906*%
%ADD20R,0.04331X0.03937*%
%ADD21R,0.08100X0.01700*%
%ADD22C,0.03962*%
%ADD23R,0.20500X0.34400*%
%ADD24R,0.03100X0.03100*%
%ADD25C,0.01200*%
%ADD26R,0.03962X0.03962*%
%ADD27C,0.03569*%
%ADD28C,0.03100*%
%ADD29C,0.02400*%
%ADD30C,0.07000*%
%ADD31C,0.05906*%
%ADD32C,0.04000*%
%ADD33C,0.16535*%
%ADD34C,0.06496*%
D10*
X0001800Y0005437D02*
X0001800Y0207563D01*
X0001802Y0207687D01*
X0001808Y0207810D01*
X0001817Y0207934D01*
X0001831Y0208056D01*
X0001848Y0208179D01*
X0001870Y0208301D01*
X0001895Y0208422D01*
X0001924Y0208542D01*
X0001956Y0208661D01*
X0001993Y0208780D01*
X0002033Y0208897D01*
X0002076Y0209012D01*
X0002124Y0209127D01*
X0002175Y0209239D01*
X0002229Y0209350D01*
X0002287Y0209460D01*
X0002348Y0209567D01*
X0002413Y0209673D01*
X0002481Y0209776D01*
X0002552Y0209877D01*
X0002626Y0209976D01*
X0002703Y0210073D01*
X0002784Y0210167D01*
X0002867Y0210258D01*
X0002953Y0210347D01*
X0003042Y0210433D01*
X0003133Y0210516D01*
X0003227Y0210597D01*
X0003324Y0210674D01*
X0003423Y0210748D01*
X0003524Y0210819D01*
X0003627Y0210887D01*
X0003733Y0210952D01*
X0003840Y0211013D01*
X0003950Y0211071D01*
X0004061Y0211125D01*
X0004173Y0211176D01*
X0004288Y0211224D01*
X0004403Y0211267D01*
X0004520Y0211307D01*
X0004639Y0211344D01*
X0004758Y0211376D01*
X0004878Y0211405D01*
X0004999Y0211430D01*
X0005121Y0211452D01*
X0005244Y0211469D01*
X0005366Y0211483D01*
X0005490Y0211492D01*
X0005613Y0211498D01*
X0005737Y0211500D01*
X0255800Y0211500D01*
X0261800Y0205500D01*
X0261800Y0160500D01*
X0271800Y0150500D01*
X0271800Y0021500D01*
X0261800Y0011500D01*
X0261800Y0005437D01*
X0261798Y0005313D01*
X0261792Y0005190D01*
X0261783Y0005066D01*
X0261769Y0004944D01*
X0261752Y0004821D01*
X0261730Y0004699D01*
X0261705Y0004578D01*
X0261676Y0004458D01*
X0261644Y0004339D01*
X0261607Y0004220D01*
X0261567Y0004103D01*
X0261524Y0003988D01*
X0261476Y0003873D01*
X0261425Y0003761D01*
X0261371Y0003650D01*
X0261313Y0003540D01*
X0261252Y0003433D01*
X0261187Y0003327D01*
X0261119Y0003224D01*
X0261048Y0003123D01*
X0260974Y0003024D01*
X0260897Y0002927D01*
X0260816Y0002833D01*
X0260733Y0002742D01*
X0260647Y0002653D01*
X0260558Y0002567D01*
X0260467Y0002484D01*
X0260373Y0002403D01*
X0260276Y0002326D01*
X0260177Y0002252D01*
X0260076Y0002181D01*
X0259973Y0002113D01*
X0259867Y0002048D01*
X0259760Y0001987D01*
X0259650Y0001929D01*
X0259539Y0001875D01*
X0259427Y0001824D01*
X0259312Y0001776D01*
X0259197Y0001733D01*
X0259080Y0001693D01*
X0258961Y0001656D01*
X0258842Y0001624D01*
X0258722Y0001595D01*
X0258601Y0001570D01*
X0258479Y0001548D01*
X0258356Y0001531D01*
X0258234Y0001517D01*
X0258110Y0001508D01*
X0257987Y0001502D01*
X0257863Y0001500D01*
X0005737Y0001500D01*
X0005613Y0001502D01*
X0005490Y0001508D01*
X0005366Y0001517D01*
X0005244Y0001531D01*
X0005121Y0001548D01*
X0004999Y0001570D01*
X0004878Y0001595D01*
X0004758Y0001624D01*
X0004639Y0001656D01*
X0004520Y0001693D01*
X0004403Y0001733D01*
X0004288Y0001776D01*
X0004173Y0001824D01*
X0004061Y0001875D01*
X0003950Y0001929D01*
X0003840Y0001987D01*
X0003733Y0002048D01*
X0003627Y0002113D01*
X0003524Y0002181D01*
X0003423Y0002252D01*
X0003324Y0002326D01*
X0003227Y0002403D01*
X0003133Y0002484D01*
X0003042Y0002567D01*
X0002953Y0002653D01*
X0002867Y0002742D01*
X0002784Y0002833D01*
X0002703Y0002927D01*
X0002626Y0003024D01*
X0002552Y0003123D01*
X0002481Y0003224D01*
X0002413Y0003327D01*
X0002348Y0003433D01*
X0002287Y0003540D01*
X0002229Y0003650D01*
X0002175Y0003761D01*
X0002124Y0003873D01*
X0002076Y0003988D01*
X0002033Y0004103D01*
X0001993Y0004220D01*
X0001956Y0004339D01*
X0001924Y0004458D01*
X0001895Y0004578D01*
X0001870Y0004699D01*
X0001848Y0004821D01*
X0001831Y0004944D01*
X0001817Y0005066D01*
X0001808Y0005190D01*
X0001802Y0005313D01*
X0001800Y0005437D01*
X0106800Y0084000D02*
X0106800Y0091382D01*
X0110146Y0076500D02*
X0116800Y0076500D01*
D11*
X0141800Y0089000D02*
X0141800Y0011500D01*
X0161800Y0089000D02*
X0188300Y0089000D01*
X0189300Y0090000D01*
X0200800Y0090000D01*
X0200800Y0092500D01*
X0200800Y0095100D01*
X0200800Y0107900D02*
X0192800Y0107900D01*
X0192800Y0109000D01*
X0192800Y0110500D01*
X0200800Y0110500D01*
X0200800Y0113000D02*
X0210300Y0113000D01*
X0200146Y0156500D02*
X0200146Y0160654D01*
X0199300Y0161500D01*
X0194300Y0161500D01*
X0186800Y0169000D01*
X0074300Y0169000D01*
X0074300Y0159000D02*
X0163454Y0159000D01*
X0165954Y0156500D01*
X0141800Y0224000D02*
X0144300Y0266500D01*
X0158050Y0266500D01*
X0166800Y0266853D02*
X0266800Y0266853D01*
X0266800Y0268451D02*
X0166800Y0268451D01*
X0166800Y0270050D02*
X0266800Y0270050D01*
X0266800Y0271648D02*
X0166800Y0271648D01*
X0166800Y0273247D02*
X0266800Y0273247D01*
X0266800Y0274845D02*
X0166800Y0274845D01*
X0166800Y0276444D02*
X0266800Y0276444D01*
X0266800Y0278042D02*
X0166800Y0278042D01*
X0166800Y0279641D02*
X0266800Y0279641D01*
X0266800Y0281239D02*
X0166800Y0281239D01*
X0166800Y0282838D02*
X0266800Y0282838D01*
X0266800Y0284437D02*
X0170391Y0284437D01*
X0169300Y0284000D02*
X0166800Y0284000D01*
X0166800Y0249000D01*
X0169300Y0249000D01*
X0206800Y0239000D01*
X0266800Y0239000D01*
X0266800Y0299000D01*
X0206800Y0299000D01*
X0169300Y0284000D01*
X0174388Y0286035D02*
X0266800Y0286035D01*
X0266800Y0287634D02*
X0178384Y0287634D01*
X0182380Y0289232D02*
X0266800Y0289232D01*
X0266800Y0290831D02*
X0186376Y0290831D01*
X0190373Y0292429D02*
X0266800Y0292429D01*
X0266800Y0294028D02*
X0194369Y0294028D01*
X0198365Y0295626D02*
X0266800Y0295626D01*
X0266800Y0297225D02*
X0202361Y0297225D01*
X0206358Y0298823D02*
X0266800Y0298823D01*
X0271800Y0324000D02*
X0271800Y0214000D01*
X0001800Y0214000D01*
X0001800Y0324000D01*
X0271800Y0324000D01*
X0266800Y0265254D02*
X0166800Y0265254D01*
X0166800Y0263656D02*
X0266800Y0263656D01*
X0266800Y0262057D02*
X0166800Y0262057D01*
X0166800Y0260459D02*
X0266800Y0260459D01*
X0266800Y0258860D02*
X0166800Y0258860D01*
X0166800Y0257262D02*
X0266800Y0257262D01*
X0266800Y0255663D02*
X0166800Y0255663D01*
X0166800Y0254065D02*
X0266800Y0254065D01*
X0266800Y0252466D02*
X0166800Y0252466D01*
X0166800Y0250868D02*
X0266800Y0250868D01*
X0266800Y0249269D02*
X0166800Y0249269D01*
X0174285Y0247671D02*
X0266800Y0247671D01*
X0266800Y0246072D02*
X0180279Y0246072D01*
X0186274Y0244474D02*
X0266800Y0244474D01*
X0266800Y0242875D02*
X0192268Y0242875D01*
X0198262Y0241277D02*
X0266800Y0241277D01*
X0266800Y0239678D02*
X0204257Y0239678D01*
X0236800Y0176500D02*
X0239300Y0176500D01*
X0241800Y0176500D01*
X0246800Y0176500D02*
X0246800Y0169236D01*
X0246800Y0148764D01*
X0246800Y0141500D01*
X0131800Y0224000D02*
X0129300Y0266500D01*
X0115550Y0266500D01*
X0106800Y0266853D02*
X0009300Y0266853D01*
X0009300Y0268451D02*
X0106800Y0268451D01*
X0106800Y0270050D02*
X0009300Y0270050D01*
X0009300Y0271648D02*
X0106800Y0271648D01*
X0106800Y0273247D02*
X0009300Y0273247D01*
X0009300Y0274845D02*
X0106800Y0274845D01*
X0106800Y0276444D02*
X0009300Y0276444D01*
X0009300Y0278042D02*
X0106800Y0278042D01*
X0106800Y0279641D02*
X0009300Y0279641D01*
X0009300Y0281239D02*
X0106800Y0281239D01*
X0106800Y0282838D02*
X0009300Y0282838D01*
X0009300Y0284437D02*
X0103136Y0284437D01*
X0104300Y0284000D02*
X0106800Y0284000D01*
X0106800Y0249000D01*
X0104300Y0249000D01*
X0064300Y0239000D01*
X0009300Y0239000D01*
X0009300Y0299000D01*
X0064300Y0299000D01*
X0104300Y0284000D01*
X0098873Y0286035D02*
X0009300Y0286035D01*
X0009300Y0287634D02*
X0094611Y0287634D01*
X0090348Y0289232D02*
X0009300Y0289232D01*
X0009300Y0290831D02*
X0086085Y0290831D01*
X0081823Y0292429D02*
X0009300Y0292429D01*
X0009300Y0294028D02*
X0077560Y0294028D01*
X0073297Y0295626D02*
X0009300Y0295626D01*
X0009300Y0297225D02*
X0069034Y0297225D01*
X0064772Y0298823D02*
X0009300Y0298823D01*
X0009300Y0265254D02*
X0106800Y0265254D01*
X0106800Y0263656D02*
X0009300Y0263656D01*
X0009300Y0262057D02*
X0106800Y0262057D01*
X0106800Y0260459D02*
X0009300Y0260459D01*
X0009300Y0258860D02*
X0106800Y0258860D01*
X0106800Y0257262D02*
X0009300Y0257262D01*
X0009300Y0255663D02*
X0106800Y0255663D01*
X0106800Y0254065D02*
X0009300Y0254065D01*
X0009300Y0252466D02*
X0106800Y0252466D01*
X0106800Y0250868D02*
X0009300Y0250868D01*
X0009300Y0249269D02*
X0106800Y0249269D01*
X0098983Y0247671D02*
X0009300Y0247671D01*
X0009300Y0246072D02*
X0092589Y0246072D01*
X0086195Y0244474D02*
X0009300Y0244474D01*
X0009300Y0242875D02*
X0079801Y0242875D01*
X0073407Y0241277D02*
X0009300Y0241277D01*
X0009300Y0239678D02*
X0067013Y0239678D01*
D12*
X0103060Y0101618D03*
X0110540Y0101618D03*
X0110540Y0091382D03*
X0106800Y0091382D03*
X0103060Y0091382D03*
D13*
X0171564Y0129000D03*
X0171564Y0134000D03*
X0171564Y0139000D03*
X0171564Y0144000D03*
X0192036Y0144000D03*
X0192036Y0139000D03*
X0192036Y0134000D03*
X0192036Y0129000D03*
D14*
X0231800Y0148764D03*
X0236800Y0148764D03*
X0241800Y0148764D03*
X0246800Y0148764D03*
X0246800Y0169236D03*
X0241800Y0169236D03*
X0236800Y0169236D03*
X0231800Y0169236D03*
X0211800Y0061736D03*
X0206800Y0061736D03*
X0201800Y0061736D03*
X0196800Y0061736D03*
X0196800Y0041264D03*
X0201800Y0041264D03*
X0206800Y0041264D03*
X0211800Y0041264D03*
X0134300Y0113764D03*
X0129300Y0113764D03*
X0124300Y0113764D03*
X0119300Y0113764D03*
X0119300Y0134236D03*
X0124300Y0134236D03*
X0129300Y0134236D03*
X0134300Y0134236D03*
D15*
X0135800Y0198500D02*
X0135800Y0204500D01*
X0125800Y0204500D02*
X0125800Y0198500D01*
X0115800Y0198500D02*
X0115800Y0204500D01*
X0105800Y0204500D02*
X0105800Y0198500D01*
X0095800Y0198500D02*
X0095800Y0204500D01*
X0085800Y0204500D02*
X0085800Y0198500D01*
X0075800Y0198500D02*
X0075800Y0204500D01*
X0145800Y0204500D02*
X0145800Y0198500D01*
X0155800Y0198500D02*
X0155800Y0204500D01*
X0165800Y0204500D02*
X0165800Y0198500D01*
X0181800Y0198500D02*
X0181800Y0204500D01*
X0191800Y0204500D02*
X0191800Y0198500D01*
X0201800Y0198500D02*
X0201800Y0204500D01*
X0211800Y0204500D02*
X0211800Y0198500D01*
X0221800Y0198500D02*
X0221800Y0204500D01*
X0231800Y0204500D02*
X0231800Y0198500D01*
X0241800Y0198500D02*
X0241800Y0204500D01*
X0251800Y0204500D02*
X0251800Y0198500D01*
X0111800Y0062000D02*
X0111800Y0056000D01*
X0101800Y0056000D02*
X0101800Y0062000D01*
X0111800Y0014500D02*
X0111800Y0008500D01*
X0121800Y0008500D02*
X0121800Y0014500D01*
X0131800Y0014500D02*
X0131800Y0008500D01*
X0141800Y0008500D02*
X0141800Y0014500D01*
X0151800Y0014500D02*
X0151800Y0008500D01*
X0161800Y0008500D02*
X0161800Y0014500D01*
X0171800Y0014500D02*
X0171800Y0008500D01*
X0181800Y0008500D02*
X0181800Y0014500D01*
X0201800Y0014500D02*
X0201800Y0008500D01*
X0211800Y0008500D02*
X0211800Y0014500D01*
X0221800Y0014500D02*
X0221800Y0008500D01*
X0231800Y0008500D02*
X0231800Y0014500D01*
X0241800Y0014500D02*
X0241800Y0008500D01*
X0251800Y0008500D02*
X0251800Y0014500D01*
D16*
X0159800Y0133654D03*
X0159800Y0140346D03*
X0165954Y0156500D03*
X0172646Y0156500D03*
X0179954Y0156500D03*
X0186646Y0156500D03*
X0193454Y0156500D03*
X0200146Y0156500D03*
X0110146Y0076500D03*
X0103454Y0076500D03*
X0094300Y0090654D03*
X0094300Y0097346D03*
D17*
X0074300Y0149000D03*
X0074300Y0159000D03*
X0074300Y0169000D03*
X0064300Y0169000D03*
X0064300Y0159000D03*
X0064300Y0149000D03*
X0239300Y0184000D03*
X0252300Y0121500D03*
X0252300Y0111500D03*
X0252300Y0101500D03*
X0262300Y0101500D03*
X0262300Y0111500D03*
X0262300Y0121500D03*
D18*
X0151800Y0037346D03*
X0151800Y0030654D03*
D19*
X0150954Y0046500D03*
X0157646Y0046500D03*
D20*
X0157646Y0056500D03*
X0150954Y0056500D03*
X0150954Y0066500D03*
X0157646Y0066500D03*
X0181800Y0064846D03*
X0181800Y0058154D03*
X0230954Y0051500D03*
X0237646Y0051500D03*
X0237646Y0071500D03*
X0230954Y0071500D03*
X0236800Y0128154D03*
X0236800Y0134846D03*
X0132646Y0144000D03*
X0125954Y0144000D03*
D21*
X0200800Y0113000D03*
X0200800Y0110500D03*
X0200800Y0107900D03*
X0200800Y0105300D03*
X0200800Y0102800D03*
X0200800Y0100200D03*
X0200800Y0097700D03*
X0200800Y0095100D03*
X0200800Y0092500D03*
X0200800Y0090000D03*
X0227800Y0090000D03*
X0227800Y0092500D03*
X0227800Y0095100D03*
X0227800Y0097700D03*
X0227800Y0100200D03*
X0227800Y0102800D03*
X0227800Y0105300D03*
X0227800Y0107900D03*
X0227800Y0110500D03*
X0227800Y0113000D03*
D22*
X0231800Y0141500D03*
X0231800Y0176500D03*
X0226800Y0186500D03*
X0209300Y0186500D03*
X0251800Y0071100D03*
X0251800Y0051900D03*
D23*
X0158050Y0266500D03*
X0115550Y0266500D03*
D24*
X0139300Y0144000D03*
X0159800Y0146500D03*
X0192800Y0109000D03*
X0192100Y0102800D03*
X0201800Y0129000D03*
X0201800Y0144000D03*
X0246800Y0141500D03*
X0246800Y0176500D03*
X0224300Y0071500D03*
X0224300Y0051500D03*
X0219300Y0039000D03*
X0166800Y0051500D03*
X0166800Y0066500D03*
X0134300Y0104000D03*
X0116800Y0076500D03*
X0106800Y0084000D03*
X0094300Y0084000D03*
D25*
X0094300Y0090654D01*
X0094300Y0097346D02*
X0094288Y0101346D01*
X0103060Y0101618D01*
X0103060Y0107760D01*
X0106800Y0111500D01*
X0124300Y0129000D01*
X0124300Y0134236D01*
X0124300Y0144000D01*
X0125954Y0144000D01*
X0132646Y0144000D02*
X0139300Y0144000D01*
X0129300Y0134236D02*
X0129300Y0126500D01*
X0136800Y0126500D01*
X0146800Y0116500D01*
X0146800Y0101500D01*
X0146800Y0096500D02*
X0129300Y0096500D01*
X0129300Y0104000D02*
X0129300Y0113764D01*
X0124300Y0113764D02*
X0124300Y0121500D01*
X0129300Y0126500D01*
X0134300Y0113764D02*
X0134300Y0104000D01*
X0129300Y0104000D02*
X0121800Y0096500D01*
X0104300Y0096500D01*
X0104300Y0092622D01*
X0103060Y0091382D01*
X0103060Y0076500D01*
X0103454Y0076500D01*
X0110540Y0091382D02*
X0111918Y0091382D01*
X0121800Y0081500D01*
X0121800Y0069000D01*
X0111800Y0059000D01*
X0109300Y0051500D02*
X0116800Y0051500D01*
X0119300Y0054000D01*
X0119300Y0061500D01*
X0124300Y0066500D01*
X0124300Y0084000D01*
X0116800Y0091500D01*
X0116800Y0101500D02*
X0116682Y0101618D01*
X0110540Y0101618D01*
X0146800Y0096500D02*
X0151800Y0091500D01*
X0151800Y0112500D01*
X0159300Y0112500D01*
X0163300Y0112500D01*
X0163800Y0113000D01*
X0200800Y0113000D01*
X0200800Y0105300D02*
X0206800Y0105300D01*
X0206800Y0071500D01*
X0196800Y0071500D01*
X0196800Y0061736D01*
X0194064Y0061736D01*
X0189300Y0066500D01*
X0183454Y0066500D01*
X0181800Y0064846D01*
X0181800Y0058154D02*
X0170146Y0058154D01*
X0166800Y0061500D01*
X0150954Y0061500D01*
X0150954Y0066500D01*
X0151800Y0067346D01*
X0151800Y0091500D01*
X0156800Y0101500D02*
X0157600Y0101500D01*
X0161400Y0097700D01*
X0200800Y0097700D01*
X0200800Y0100200D02*
X0170600Y0100200D01*
X0164300Y0106500D01*
X0159300Y0112500D02*
X0159300Y0116000D01*
X0159300Y0124000D02*
X0159300Y0133654D01*
X0159800Y0133654D01*
X0171564Y0133654D01*
X0171564Y0134000D01*
X0171564Y0139000D02*
X0171564Y0144000D01*
X0171564Y0139000D02*
X0179300Y0139000D01*
X0181800Y0136500D01*
X0181800Y0124000D01*
X0171300Y0124000D01*
X0184300Y0136500D02*
X0186800Y0134000D01*
X0192036Y0134000D01*
X0192036Y0139000D02*
X0189300Y0139000D01*
X0184300Y0144000D01*
X0184300Y0151500D01*
X0186646Y0156500D01*
X0193454Y0156500D01*
X0192036Y0144000D02*
X0201800Y0144000D01*
X0201800Y0129000D02*
X0192036Y0129000D01*
X0184300Y0136500D02*
X0184300Y0139000D01*
X0181800Y0141500D01*
X0181800Y0149000D01*
X0172800Y0151154D01*
X0172646Y0156500D01*
X0179954Y0156500D01*
X0159800Y0146500D02*
X0159800Y0140346D01*
X0192100Y0102800D02*
X0200800Y0102800D01*
X0216800Y0099000D02*
X0218100Y0097700D01*
X0227800Y0097700D01*
X0227800Y0100200D02*
X0220600Y0100200D01*
X0219300Y0101500D01*
X0219300Y0186500D01*
X0221800Y0189000D01*
X0221800Y0201500D01*
X0211800Y0201500D02*
X0211800Y0191500D01*
X0216800Y0186500D01*
X0216800Y0099000D01*
X0227800Y0102800D02*
X0238000Y0102800D01*
X0239300Y0101500D01*
X0240700Y0107900D02*
X0244300Y0111500D01*
X0252300Y0111500D01*
X0257300Y0106500D02*
X0246800Y0106500D01*
X0245600Y0105300D01*
X0227800Y0105300D01*
X0227800Y0107900D02*
X0240700Y0107900D01*
X0244700Y0095100D02*
X0227800Y0095100D01*
X0227800Y0092500D02*
X0240800Y0092500D01*
X0251800Y0081500D01*
X0251800Y0071100D01*
X0238046Y0071100D01*
X0237646Y0071500D01*
X0230954Y0071500D02*
X0224300Y0071500D01*
X0237800Y0087500D02*
X0235300Y0090000D01*
X0227800Y0090000D01*
X0244700Y0095100D02*
X0255800Y0084000D01*
X0255800Y0055900D01*
X0251800Y0051900D01*
X0238046Y0051900D01*
X0237646Y0051500D01*
X0230954Y0051500D02*
X0224300Y0051500D01*
X0217036Y0041264D02*
X0219300Y0039000D01*
X0217036Y0041264D02*
X0211800Y0041264D01*
X0166800Y0051500D02*
X0161800Y0046500D01*
X0157646Y0046500D01*
X0151800Y0045654D02*
X0150954Y0046500D01*
X0150954Y0056500D01*
X0150954Y0061500D01*
X0157646Y0066500D02*
X0166800Y0066500D01*
X0161800Y0056500D02*
X0157646Y0056500D01*
X0161800Y0056500D02*
X0166800Y0051500D01*
X0151800Y0045654D02*
X0151800Y0037346D01*
X0151800Y0030654D02*
X0151800Y0011500D01*
X0109300Y0051500D02*
X0101800Y0059000D01*
X0169300Y0186500D02*
X0209300Y0186500D01*
X0226800Y0186500D02*
X0226800Y0161500D01*
X0231800Y0156500D01*
X0234300Y0156500D01*
X0236800Y0154000D01*
X0236800Y0148764D01*
X0236800Y0134846D01*
X0236800Y0128154D02*
X0243454Y0128154D01*
X0246800Y0131500D01*
X0262300Y0111500D02*
X0257300Y0106500D01*
X0169300Y0186500D02*
X0165800Y0190000D01*
X0165800Y0201500D01*
D26*
X0171300Y0124000D03*
X0164300Y0106500D03*
X0161800Y0089000D03*
X0141800Y0089000D03*
X0189300Y0090000D03*
X0210300Y0113000D03*
X0237800Y0087500D03*
X0246800Y0131500D03*
D27*
X0239300Y0101500D03*
D28*
X0159300Y0116000D03*
X0159300Y0124000D03*
X0156800Y0101500D03*
X0146800Y0101500D03*
X0129300Y0096500D03*
X0116800Y0091500D03*
X0116800Y0101500D03*
X0106800Y0111500D03*
D29*
X0231800Y0141500D02*
X0231800Y0148764D01*
X0231800Y0169236D02*
X0231800Y0176500D01*
X0236800Y0176500D02*
X0236800Y0169236D01*
X0241800Y0169236D02*
X0241800Y0176500D01*
D30*
X0239300Y0176500D02*
X0239300Y0184000D01*
D31*
X0209300Y0176500D03*
D32*
X0206800Y0179000D01*
X0066800Y0179000D01*
X0064300Y0176500D01*
X0064300Y0169000D01*
D33*
X0036800Y0269000D03*
X0236800Y0269000D03*
D34*
X0141800Y0224000D03*
X0131800Y0224000D03*
M02*
