G75*
%MOIN*%
%OFA0B0*%
%FSLAX25Y25*%
%IPPOS*%
%LPD*%
%AMOC8*
5,1,8,0,0,1.08239X$1,22.5*
%
%ADD10C,0.00800*%
%ADD11C,0.00600*%
%ADD12C,0.01000*%
%ADD13C,0.01100*%
%ADD14C,0.00300*%
%ADD15C,0.00400*%
%ADD16C,0.00500*%
%ADD17C,0.00000*%
D10*
X0089996Y0047301D02*
X0090697Y0046600D01*
X0091398Y0046600D01*
X0092098Y0047301D01*
X0092098Y0048702D01*
X0092799Y0049402D01*
X0093499Y0049402D01*
X0094200Y0048702D01*
X0094200Y0047301D01*
X0093499Y0046600D01*
X0090697Y0049402D02*
X0089996Y0048702D01*
X0089996Y0047301D01*
X0089996Y0051204D02*
X0094200Y0051204D01*
X0092098Y0051204D02*
X0092098Y0054006D01*
X0089996Y0054006D02*
X0094200Y0054006D01*
X0093499Y0055808D02*
X0094200Y0056508D01*
X0094200Y0057910D01*
X0093499Y0058610D01*
X0089996Y0058610D01*
X0089996Y0060412D02*
X0094200Y0063214D01*
X0089996Y0063214D01*
X0089996Y0065016D02*
X0089996Y0067818D01*
X0089996Y0066417D02*
X0094200Y0066417D01*
X0094200Y0060412D02*
X0089996Y0060412D01*
X0089996Y0055808D02*
X0093499Y0055808D01*
X0102200Y0049002D02*
X0105002Y0049002D01*
X0109700Y0049002D02*
X0112502Y0049002D01*
X0111101Y0050403D02*
X0111101Y0047601D01*
X0119096Y0042010D02*
X0119096Y0038807D01*
X0123900Y0038807D01*
X0123900Y0036853D02*
X0123900Y0033650D01*
X0119096Y0033650D01*
X0119096Y0036853D01*
X0121498Y0035252D02*
X0121498Y0033650D01*
X0121498Y0031697D02*
X0119897Y0031697D01*
X0119096Y0030896D01*
X0119096Y0028494D01*
X0123900Y0028494D01*
X0122299Y0028494D02*
X0122299Y0030896D01*
X0121498Y0031697D01*
X0122299Y0030095D02*
X0123900Y0031697D01*
X0127596Y0031013D02*
X0127596Y0032615D01*
X0128397Y0033416D01*
X0129998Y0032615D02*
X0129998Y0031013D01*
X0129197Y0030213D01*
X0128397Y0030213D01*
X0127596Y0031013D01*
X0127596Y0028259D02*
X0127596Y0025056D01*
X0132400Y0025056D01*
X0132400Y0028259D01*
X0131599Y0030213D02*
X0132400Y0031013D01*
X0132400Y0032615D01*
X0131599Y0033416D01*
X0130799Y0033416D01*
X0129998Y0032615D01*
X0129998Y0035369D02*
X0129998Y0036971D01*
X0132400Y0038572D02*
X0132400Y0035369D01*
X0127596Y0035369D01*
X0127596Y0038572D01*
X0127596Y0040526D02*
X0127596Y0043728D01*
X0127596Y0042127D02*
X0132400Y0042127D01*
X0139397Y0032916D02*
X0140197Y0032916D01*
X0140998Y0032115D01*
X0141799Y0032916D01*
X0142599Y0032916D01*
X0143400Y0032115D01*
X0143400Y0030513D01*
X0142599Y0029713D01*
X0141799Y0027759D02*
X0138596Y0027759D01*
X0139397Y0029713D02*
X0138596Y0030513D01*
X0138596Y0032115D01*
X0139397Y0032916D01*
X0140998Y0032115D02*
X0140998Y0031314D01*
X0141799Y0027759D02*
X0143400Y0026158D01*
X0141799Y0024556D01*
X0138596Y0024556D01*
X0139397Y0022603D02*
X0140197Y0022603D01*
X0140998Y0021802D01*
X0141799Y0022603D01*
X0142599Y0022603D01*
X0143400Y0021802D01*
X0143400Y0020201D01*
X0142599Y0019400D01*
X0140998Y0021001D02*
X0140998Y0021802D01*
X0139397Y0022603D02*
X0138596Y0021802D01*
X0138596Y0020201D01*
X0139397Y0019400D01*
X0132400Y0019900D02*
X0127596Y0019900D01*
X0127596Y0022302D01*
X0128397Y0023103D01*
X0129998Y0023103D01*
X0130799Y0022302D01*
X0130799Y0019900D01*
X0130799Y0021501D02*
X0132400Y0023103D01*
X0129998Y0025056D02*
X0129998Y0026658D01*
X0123900Y0025740D02*
X0123099Y0026540D01*
X0119897Y0026540D01*
X0119096Y0025740D01*
X0119096Y0024138D01*
X0119897Y0023338D01*
X0123099Y0023338D01*
X0123900Y0024138D01*
X0123900Y0025740D01*
X0123900Y0021501D02*
X0123900Y0019900D01*
X0123900Y0020701D02*
X0119096Y0020701D01*
X0119096Y0021501D02*
X0119096Y0019900D01*
X0121498Y0038807D02*
X0121498Y0040408D01*
X0147700Y0024204D02*
X0147700Y0021802D01*
X0149301Y0022603D01*
X0150102Y0022603D01*
X0150903Y0021802D01*
X0150903Y0020201D01*
X0150102Y0019400D01*
X0148501Y0019400D01*
X0147700Y0020201D01*
X0147700Y0024204D02*
X0150903Y0024204D01*
X0152856Y0024204D02*
X0152856Y0021001D01*
X0154458Y0019400D01*
X0156059Y0021001D01*
X0156059Y0024204D01*
X0159733Y0023351D02*
X0159733Y0020149D01*
X0160534Y0019348D01*
X0162135Y0019348D01*
X0162936Y0020149D01*
X0162936Y0021750D01*
X0161334Y0021750D01*
X0159733Y0023351D02*
X0160534Y0024152D01*
X0162135Y0024152D01*
X0162936Y0023351D01*
X0164889Y0024152D02*
X0168092Y0019348D01*
X0168092Y0024152D01*
X0170046Y0024152D02*
X0172448Y0024152D01*
X0173249Y0023351D01*
X0173249Y0020149D01*
X0172448Y0019348D01*
X0170046Y0019348D01*
X0170046Y0024152D01*
X0164889Y0024152D02*
X0164889Y0019348D01*
X0176700Y0021001D02*
X0178301Y0019400D01*
X0179903Y0021001D01*
X0179903Y0024204D01*
X0181856Y0024204D02*
X0183458Y0024204D01*
X0182657Y0024204D02*
X0182657Y0019400D01*
X0181856Y0019400D02*
X0183458Y0019400D01*
X0185294Y0019400D02*
X0185294Y0024204D01*
X0188497Y0019400D01*
X0188497Y0024204D01*
X0176700Y0024204D02*
X0176700Y0021001D01*
X0249700Y0129900D02*
X0251101Y0129900D01*
X0250401Y0129900D02*
X0250401Y0134104D01*
X0251101Y0134104D02*
X0249700Y0134104D01*
X0252769Y0133403D02*
X0252769Y0130601D01*
X0253470Y0129900D01*
X0254871Y0129900D01*
X0255572Y0130601D01*
X0257373Y0130601D02*
X0258074Y0129900D01*
X0259475Y0129900D01*
X0260176Y0130601D01*
X0260176Y0131301D01*
X0259475Y0132002D01*
X0258074Y0132002D01*
X0257373Y0132702D01*
X0257373Y0133403D01*
X0258074Y0134104D01*
X0259475Y0134104D01*
X0260176Y0133403D01*
X0261977Y0134104D02*
X0261977Y0129900D01*
X0261977Y0131301D02*
X0264079Y0131301D01*
X0264780Y0132002D01*
X0264780Y0133403D01*
X0264079Y0134104D01*
X0261977Y0134104D01*
X0255572Y0133403D02*
X0254871Y0134104D01*
X0253470Y0134104D01*
X0252769Y0133403D01*
X0219696Y0184900D02*
X0218996Y0185601D01*
X0220397Y0187002D01*
X0219696Y0187702D01*
X0220397Y0189504D02*
X0219696Y0190205D01*
X0219696Y0191606D01*
X0220397Y0192306D01*
X0221098Y0192306D01*
X0221798Y0191606D01*
X0222499Y0192306D01*
X0223199Y0192306D01*
X0223900Y0191606D01*
X0223900Y0190205D01*
X0223199Y0189504D01*
X0221798Y0190905D02*
X0221798Y0191606D01*
X0229696Y0192002D02*
X0229696Y0190601D01*
X0230397Y0189900D01*
X0229696Y0192002D02*
X0230397Y0192702D01*
X0231098Y0192702D01*
X0233900Y0189900D01*
X0233900Y0192702D01*
X0239696Y0191301D02*
X0243900Y0191301D01*
X0243900Y0189900D02*
X0243900Y0192702D01*
X0241098Y0189900D02*
X0239696Y0191301D01*
X0249696Y0190601D02*
X0249696Y0192002D01*
X0250397Y0192702D01*
X0253199Y0189900D01*
X0253900Y0190601D01*
X0253900Y0192002D01*
X0253199Y0192702D01*
X0250397Y0192702D01*
X0249696Y0190601D02*
X0250397Y0189900D01*
X0253199Y0189900D01*
X0213900Y0192002D02*
X0209696Y0192002D01*
X0211798Y0189900D01*
X0211798Y0192702D01*
X0203900Y0191606D02*
X0203900Y0190205D01*
X0203199Y0189504D01*
X0201798Y0189504D02*
X0201098Y0190905D01*
X0201098Y0191606D01*
X0201798Y0192306D01*
X0203199Y0192306D01*
X0203900Y0191606D01*
X0201798Y0189504D02*
X0199696Y0189504D01*
X0199696Y0192306D01*
X0199696Y0187702D02*
X0200397Y0187002D01*
X0198996Y0185601D01*
X0199696Y0184900D01*
X0193900Y0190205D02*
X0193900Y0191606D01*
X0193199Y0192306D01*
X0192499Y0192306D01*
X0191798Y0191606D01*
X0191798Y0189504D01*
X0193199Y0189504D01*
X0193900Y0190205D01*
X0191798Y0189504D02*
X0190397Y0190905D01*
X0189696Y0192306D01*
X0189696Y0187702D02*
X0190397Y0187002D01*
X0188996Y0185601D01*
X0189696Y0184900D01*
X0183900Y0189900D02*
X0183199Y0189900D01*
X0180397Y0192702D01*
X0179696Y0192702D01*
X0179696Y0189900D01*
X0168900Y0190601D02*
X0168199Y0189900D01*
X0167499Y0189900D01*
X0166798Y0190601D01*
X0166798Y0192002D01*
X0167499Y0192702D01*
X0168199Y0192702D01*
X0168900Y0192002D01*
X0168900Y0190601D01*
X0166798Y0190601D02*
X0166098Y0189900D01*
X0165397Y0189900D01*
X0164696Y0190601D01*
X0164696Y0192002D01*
X0165397Y0192702D01*
X0166098Y0192702D01*
X0166798Y0192002D01*
X0158900Y0191606D02*
X0158199Y0192306D01*
X0155397Y0192306D01*
X0154696Y0191606D01*
X0154696Y0190205D01*
X0155397Y0189504D01*
X0156098Y0189504D01*
X0156798Y0190205D01*
X0156798Y0192306D01*
X0158900Y0191606D02*
X0158900Y0190205D01*
X0158199Y0189504D01*
X0155397Y0187002D02*
X0154696Y0187702D01*
X0155397Y0187002D02*
X0153996Y0185601D01*
X0154696Y0184900D01*
X0148900Y0185004D02*
X0148900Y0187806D01*
X0148900Y0186405D02*
X0144696Y0186405D01*
X0146098Y0185004D01*
X0144696Y0183202D02*
X0145397Y0182502D01*
X0143996Y0181101D01*
X0144696Y0180400D01*
X0138900Y0184989D02*
X0138900Y0187791D01*
X0138900Y0186390D02*
X0134696Y0186390D01*
X0136098Y0184989D01*
X0134696Y0183187D02*
X0135397Y0182487D01*
X0133996Y0181086D01*
X0134696Y0180385D01*
X0134696Y0178583D02*
X0138900Y0175781D01*
X0138900Y0174113D02*
X0138900Y0172712D01*
X0138900Y0173412D02*
X0134696Y0173412D01*
X0134696Y0172712D02*
X0134696Y0174113D01*
X0135397Y0170910D02*
X0134696Y0170210D01*
X0134696Y0168808D01*
X0135397Y0168108D01*
X0136098Y0168108D01*
X0136798Y0168808D01*
X0136798Y0170210D01*
X0137499Y0170910D01*
X0138199Y0170910D01*
X0138900Y0170210D01*
X0138900Y0168808D01*
X0138199Y0168108D01*
X0138199Y0166306D02*
X0135397Y0166306D01*
X0134696Y0165606D01*
X0134696Y0164205D01*
X0135397Y0163504D01*
X0138199Y0163504D01*
X0138900Y0164205D01*
X0138900Y0165606D01*
X0138199Y0166306D01*
X0138900Y0161702D02*
X0134696Y0161702D01*
X0136098Y0160301D01*
X0134696Y0158900D01*
X0138900Y0158900D01*
X0128900Y0163400D02*
X0124696Y0163400D01*
X0126098Y0164801D01*
X0124696Y0166202D01*
X0128900Y0166202D01*
X0128900Y0168004D02*
X0128900Y0169405D01*
X0128900Y0168705D02*
X0124696Y0168705D01*
X0124696Y0169405D02*
X0124696Y0168004D01*
X0125397Y0171073D02*
X0126098Y0171073D01*
X0126798Y0171774D01*
X0126798Y0173175D01*
X0127499Y0173876D01*
X0128199Y0173876D01*
X0128900Y0173175D01*
X0128900Y0171774D01*
X0128199Y0171073D01*
X0125397Y0171073D02*
X0124696Y0171774D01*
X0124696Y0173175D01*
X0125397Y0173876D01*
X0125397Y0175677D02*
X0128199Y0175677D01*
X0128900Y0176378D01*
X0128900Y0177779D01*
X0128199Y0178480D01*
X0125397Y0178480D01*
X0124696Y0177779D01*
X0124696Y0176378D01*
X0125397Y0175677D01*
X0128900Y0180281D02*
X0124696Y0183083D01*
X0126098Y0184885D02*
X0124696Y0186286D01*
X0128900Y0186286D01*
X0128900Y0184885D02*
X0128900Y0187687D01*
X0128900Y0189489D02*
X0126098Y0192291D01*
X0125397Y0192291D01*
X0124696Y0191591D01*
X0124696Y0190189D01*
X0125397Y0189489D01*
X0128900Y0189489D02*
X0128900Y0192291D01*
X0134696Y0190994D02*
X0138900Y0190994D01*
X0138900Y0189593D02*
X0138900Y0192395D01*
X0136098Y0189593D02*
X0134696Y0190994D01*
X0144696Y0190308D02*
X0144696Y0191710D01*
X0145397Y0192410D01*
X0148199Y0189608D01*
X0148900Y0190308D01*
X0148900Y0191710D01*
X0148199Y0192410D01*
X0145397Y0192410D01*
X0144696Y0190308D02*
X0145397Y0189608D01*
X0148199Y0189608D01*
X0118900Y0190120D02*
X0118199Y0189420D01*
X0118900Y0190120D02*
X0118900Y0191521D01*
X0118199Y0192222D01*
X0117499Y0192222D01*
X0116798Y0191521D01*
X0116798Y0190821D01*
X0116798Y0191521D02*
X0116098Y0192222D01*
X0115397Y0192222D01*
X0114696Y0191521D01*
X0114696Y0190120D01*
X0115397Y0189420D01*
X0114696Y0186217D02*
X0118900Y0186217D01*
X0118900Y0184816D02*
X0118900Y0187618D01*
X0116098Y0184816D02*
X0114696Y0186217D01*
X0114696Y0183014D02*
X0118900Y0180212D01*
X0118900Y0178410D02*
X0116798Y0176308D01*
X0117499Y0175608D02*
X0114696Y0178410D01*
X0114696Y0175608D02*
X0118900Y0175608D01*
X0118199Y0173806D02*
X0118900Y0173106D01*
X0118900Y0171705D01*
X0118199Y0171004D01*
X0115397Y0171004D01*
X0114696Y0171705D01*
X0114696Y0173106D01*
X0115397Y0173806D01*
X0115397Y0169202D02*
X0114696Y0168502D01*
X0114696Y0167101D01*
X0115397Y0166400D01*
X0116098Y0166400D01*
X0116798Y0167101D01*
X0116798Y0168502D01*
X0117499Y0169202D01*
X0118199Y0169202D01*
X0118900Y0168502D01*
X0118900Y0167101D01*
X0118199Y0166400D01*
X0108199Y0179900D02*
X0108900Y0180601D01*
X0108900Y0182002D01*
X0108199Y0182702D01*
X0106798Y0182702D01*
X0106798Y0181301D01*
X0105397Y0179900D02*
X0108199Y0179900D01*
X0105397Y0179900D02*
X0104696Y0180601D01*
X0104696Y0182002D01*
X0105397Y0182702D01*
X0104696Y0184504D02*
X0108900Y0187306D01*
X0104696Y0187306D01*
X0104696Y0189108D02*
X0104696Y0191210D01*
X0105397Y0191910D01*
X0108199Y0191910D01*
X0108900Y0191210D01*
X0108900Y0189108D01*
X0104696Y0189108D01*
X0104696Y0184504D02*
X0108900Y0184504D01*
X0098900Y0184108D02*
X0098900Y0186910D01*
X0098900Y0188712D02*
X0094696Y0188712D01*
X0094696Y0191514D01*
X0096798Y0190113D02*
X0096798Y0188712D01*
X0094696Y0186910D02*
X0094696Y0184108D01*
X0098900Y0184108D01*
X0098900Y0182306D02*
X0097499Y0180905D01*
X0097499Y0181606D02*
X0097499Y0179504D01*
X0098900Y0179504D02*
X0094696Y0179504D01*
X0094696Y0181606D01*
X0095397Y0182306D01*
X0096798Y0182306D01*
X0097499Y0181606D01*
X0096798Y0184108D02*
X0096798Y0185509D01*
X0096798Y0177702D02*
X0096798Y0174900D01*
X0096098Y0174900D02*
X0094696Y0176301D01*
X0096098Y0177702D01*
X0098900Y0177702D01*
X0098900Y0174900D02*
X0096098Y0174900D01*
D11*
X0079300Y0171500D02*
X0079300Y0166500D01*
X0076800Y0164000D01*
X0061800Y0164000D01*
X0059300Y0161500D01*
X0059300Y0156500D01*
X0061800Y0154000D01*
X0059300Y0151500D01*
X0059300Y0146500D01*
X0061800Y0144000D01*
X0076800Y0144000D01*
X0079300Y0146500D01*
X0079300Y0151500D01*
X0076800Y0154000D01*
X0061800Y0154000D01*
X0061800Y0164000D02*
X0059300Y0166500D01*
X0059300Y0171500D01*
X0061800Y0174000D01*
X0076800Y0174000D01*
X0079300Y0171500D01*
X0076800Y0164000D02*
X0079300Y0161500D01*
X0079300Y0156500D01*
X0076800Y0154000D01*
X0078300Y0196500D02*
X0073300Y0196500D01*
X0070800Y0199000D01*
X0070800Y0204000D01*
X0073300Y0206500D01*
X0078300Y0206500D01*
X0080800Y0204000D01*
X0083300Y0206500D01*
X0088300Y0206500D01*
X0090800Y0204000D01*
X0090800Y0199000D01*
X0088300Y0196500D01*
X0083300Y0196500D01*
X0080800Y0199000D01*
X0078300Y0196500D01*
X0080800Y0199000D02*
X0080800Y0204000D01*
X0090800Y0204000D02*
X0093300Y0206500D01*
X0098300Y0206500D01*
X0100800Y0204000D01*
X0103300Y0206500D01*
X0108300Y0206500D01*
X0110800Y0204000D01*
X0113300Y0206500D01*
X0118300Y0206500D01*
X0120800Y0204000D01*
X0120800Y0199000D01*
X0118300Y0196500D01*
X0113300Y0196500D01*
X0110800Y0199000D01*
X0108300Y0196500D01*
X0103300Y0196500D01*
X0100800Y0199000D01*
X0098300Y0196500D01*
X0093300Y0196500D01*
X0090800Y0199000D01*
X0100800Y0199000D02*
X0100800Y0204000D01*
X0110800Y0204000D02*
X0110800Y0199000D01*
X0120800Y0199000D02*
X0123300Y0196500D01*
X0128300Y0196500D01*
X0130800Y0199000D01*
X0133300Y0196500D01*
X0138300Y0196500D01*
X0140800Y0199000D01*
X0143300Y0196500D01*
X0148300Y0196500D01*
X0150800Y0199000D01*
X0150800Y0204000D01*
X0148300Y0206500D01*
X0143300Y0206500D01*
X0140800Y0204000D01*
X0140800Y0199000D01*
X0140800Y0204000D02*
X0138300Y0206500D01*
X0133300Y0206500D01*
X0130800Y0204000D01*
X0130800Y0199000D01*
X0130800Y0204000D02*
X0128300Y0206500D01*
X0123300Y0206500D01*
X0120800Y0204000D01*
X0150800Y0204000D02*
X0153300Y0206500D01*
X0158300Y0206500D01*
X0160800Y0204000D01*
X0163300Y0206500D01*
X0168300Y0206500D01*
X0170800Y0204000D01*
X0170800Y0199000D01*
X0168300Y0196500D01*
X0163300Y0196500D01*
X0160800Y0199000D01*
X0158300Y0196500D01*
X0153300Y0196500D01*
X0150800Y0199000D01*
X0160800Y0199000D02*
X0160800Y0204000D01*
X0176800Y0204000D02*
X0176800Y0199000D01*
X0179300Y0196500D01*
X0184300Y0196500D01*
X0186800Y0199000D01*
X0189300Y0196500D01*
X0194300Y0196500D01*
X0196800Y0199000D01*
X0196800Y0204000D01*
X0194300Y0206500D01*
X0189300Y0206500D01*
X0186800Y0204000D01*
X0186800Y0199000D01*
X0186800Y0204000D02*
X0184300Y0206500D01*
X0179300Y0206500D01*
X0176800Y0204000D01*
X0196800Y0204000D02*
X0199300Y0206500D01*
X0204300Y0206500D01*
X0206800Y0204000D01*
X0209300Y0206500D01*
X0214300Y0206500D01*
X0216800Y0204000D01*
X0219300Y0206500D01*
X0224300Y0206500D01*
X0226800Y0204000D01*
X0226800Y0199000D01*
X0224300Y0196500D01*
X0219300Y0196500D01*
X0216800Y0199000D01*
X0214300Y0196500D01*
X0209300Y0196500D01*
X0206800Y0199000D01*
X0204300Y0196500D01*
X0199300Y0196500D01*
X0196800Y0199000D01*
X0206800Y0199000D02*
X0206800Y0204000D01*
X0216800Y0204000D02*
X0216800Y0199000D01*
X0226800Y0199000D02*
X0229300Y0196500D01*
X0234300Y0196500D01*
X0236800Y0199000D01*
X0239300Y0196500D01*
X0244300Y0196500D01*
X0246800Y0199000D01*
X0249300Y0196500D01*
X0254300Y0196500D01*
X0256800Y0199000D01*
X0256800Y0204000D01*
X0254300Y0206500D01*
X0249300Y0206500D01*
X0246800Y0204000D01*
X0246800Y0199000D01*
X0246800Y0204000D02*
X0244300Y0206500D01*
X0239300Y0206500D01*
X0236800Y0204000D01*
X0236800Y0199000D01*
X0236800Y0204000D02*
X0234300Y0206500D01*
X0229300Y0206500D01*
X0226800Y0204000D01*
X0236800Y0189000D02*
X0234300Y0186500D01*
X0234300Y0181500D01*
X0236800Y0179000D01*
X0241800Y0179000D01*
X0244300Y0181500D01*
X0244300Y0186500D01*
X0241800Y0189000D01*
X0236800Y0189000D01*
X0183567Y0136568D02*
X0179030Y0136568D01*
X0179597Y0136001D02*
X0179597Y0137135D01*
X0180164Y0137702D01*
X0181299Y0137135D02*
X0181299Y0136001D01*
X0180731Y0135434D01*
X0180164Y0135434D01*
X0179597Y0136001D01*
X0179597Y0134019D02*
X0182433Y0134019D01*
X0183000Y0133452D01*
X0183000Y0132318D01*
X0182433Y0131751D01*
X0179597Y0131751D01*
X0182433Y0135434D02*
X0183000Y0136001D01*
X0183000Y0137135D01*
X0182433Y0137702D01*
X0181866Y0137702D01*
X0181299Y0137135D01*
X0180164Y0139117D02*
X0179597Y0139684D01*
X0179597Y0140818D01*
X0180164Y0141385D01*
X0180731Y0141385D01*
X0183000Y0139117D01*
X0183000Y0141385D01*
X0203300Y0116300D02*
X0203300Y0086700D01*
X0225300Y0086700D01*
X0225300Y0116300D01*
X0215500Y0116300D01*
X0213100Y0116300D01*
X0203300Y0116300D01*
X0203300Y0113800D02*
X0198100Y0113800D01*
X0198100Y0112300D01*
X0203300Y0112300D01*
X0203300Y0113800D01*
X0203300Y0111200D02*
X0198100Y0111200D01*
X0198100Y0109700D01*
X0203300Y0109700D01*
X0203300Y0111200D01*
X0203300Y0108600D02*
X0198100Y0108600D01*
X0198100Y0107100D01*
X0203300Y0107100D01*
X0203300Y0108600D01*
X0203300Y0106100D02*
X0198100Y0106100D01*
X0198100Y0104600D01*
X0203300Y0104600D01*
X0203300Y0106100D01*
X0203300Y0103500D02*
X0198100Y0103500D01*
X0198100Y0102000D01*
X0203300Y0102000D01*
X0203300Y0103500D01*
X0203300Y0101000D02*
X0198100Y0101000D01*
X0198100Y0099500D01*
X0203300Y0099500D01*
X0203300Y0101000D01*
X0203300Y0098400D02*
X0198100Y0098400D01*
X0198100Y0096900D01*
X0203300Y0096900D01*
X0203300Y0098400D01*
X0203300Y0095900D02*
X0198100Y0095900D01*
X0198100Y0094400D01*
X0203300Y0094400D01*
X0203300Y0095900D01*
X0203300Y0093300D02*
X0198100Y0093300D01*
X0198100Y0091800D01*
X0203300Y0091800D01*
X0203300Y0093300D01*
X0203300Y0090700D02*
X0198100Y0090700D01*
X0198100Y0089200D01*
X0203300Y0089200D01*
X0203300Y0090700D01*
X0225300Y0090700D02*
X0230500Y0090700D01*
X0230500Y0089200D01*
X0225300Y0089200D01*
X0225300Y0090700D01*
X0225300Y0091800D02*
X0230500Y0091800D01*
X0230500Y0093300D01*
X0225300Y0093300D01*
X0225300Y0091800D01*
X0225300Y0094400D02*
X0230500Y0094400D01*
X0230500Y0095900D01*
X0225300Y0095900D01*
X0225300Y0094400D01*
X0225300Y0096900D02*
X0230500Y0096900D01*
X0230500Y0098400D01*
X0225300Y0098400D01*
X0225300Y0096900D01*
X0225300Y0099500D02*
X0230500Y0099500D01*
X0230500Y0101000D01*
X0225300Y0101000D01*
X0225300Y0099500D01*
X0225300Y0102000D02*
X0230500Y0102000D01*
X0230500Y0103500D01*
X0225300Y0103500D01*
X0225300Y0102000D01*
X0225300Y0104600D02*
X0230500Y0104600D01*
X0230500Y0106100D01*
X0225300Y0106100D01*
X0225300Y0104600D01*
X0225300Y0107100D02*
X0230500Y0107100D01*
X0230500Y0108600D01*
X0225300Y0108600D01*
X0225300Y0107100D01*
X0225300Y0109700D02*
X0230500Y0109700D01*
X0230500Y0111200D01*
X0225300Y0111200D01*
X0225300Y0109700D01*
X0225300Y0112300D02*
X0230500Y0112300D01*
X0230500Y0113800D01*
X0225300Y0113800D01*
X0225300Y0112300D01*
X0247300Y0114000D02*
X0247300Y0109000D01*
X0249800Y0106500D01*
X0247300Y0104000D01*
X0247300Y0099000D01*
X0249800Y0096500D01*
X0264800Y0096500D01*
X0267300Y0099000D01*
X0267300Y0104000D01*
X0264800Y0106500D01*
X0249800Y0106500D01*
X0247300Y0114000D02*
X0249800Y0116500D01*
X0264800Y0116500D01*
X0267300Y0114000D01*
X0267300Y0109000D01*
X0264800Y0106500D01*
X0264800Y0116500D02*
X0267300Y0119000D01*
X0267300Y0124000D01*
X0264800Y0126500D01*
X0249800Y0126500D01*
X0247300Y0124000D01*
X0247300Y0119000D01*
X0249800Y0116500D01*
X0207051Y0053203D02*
X0207051Y0049800D01*
X0205917Y0049800D02*
X0208185Y0049800D01*
X0205917Y0052069D02*
X0207051Y0053203D01*
X0204502Y0052636D02*
X0203935Y0053203D01*
X0202801Y0053203D01*
X0202234Y0052636D01*
X0202234Y0050367D01*
X0202801Y0049800D01*
X0203935Y0049800D01*
X0204502Y0050367D01*
X0200913Y0049800D02*
X0199778Y0049800D01*
X0200345Y0049800D02*
X0200345Y0053203D01*
X0199778Y0053203D02*
X0200913Y0053203D01*
X0200040Y0022751D02*
X0198906Y0021617D01*
X0198906Y0019348D01*
X0198906Y0021049D02*
X0201174Y0021049D01*
X0201174Y0021617D02*
X0201174Y0019348D01*
X0202589Y0019915D02*
X0204857Y0022184D01*
X0204857Y0019915D01*
X0204290Y0019348D01*
X0203156Y0019348D01*
X0202589Y0019915D01*
X0202589Y0022184D01*
X0203156Y0022751D01*
X0204290Y0022751D01*
X0204857Y0022184D01*
X0201174Y0021617D02*
X0200040Y0022751D01*
X0199300Y0016500D02*
X0196800Y0014000D01*
X0196800Y0009000D01*
X0199300Y0006500D01*
X0204300Y0006500D01*
X0206800Y0009000D01*
X0209300Y0006500D01*
X0214300Y0006500D01*
X0216800Y0009000D01*
X0216800Y0014000D01*
X0214300Y0016500D01*
X0209300Y0016500D01*
X0206800Y0014000D01*
X0206800Y0009000D01*
X0206800Y0014000D02*
X0204300Y0016500D01*
X0199300Y0016500D01*
X0208906Y0019348D02*
X0208906Y0021617D01*
X0210040Y0022751D01*
X0211174Y0021617D01*
X0211174Y0019348D01*
X0212589Y0019348D02*
X0214857Y0019348D01*
X0213723Y0019348D02*
X0213723Y0022751D01*
X0212589Y0021617D01*
X0211174Y0021049D02*
X0208906Y0021049D01*
X0216800Y0014000D02*
X0219300Y0016500D01*
X0224300Y0016500D01*
X0226800Y0014000D01*
X0229300Y0016500D01*
X0234300Y0016500D01*
X0236800Y0014000D01*
X0239300Y0016500D01*
X0244300Y0016500D01*
X0246800Y0014000D01*
X0249300Y0016500D01*
X0254300Y0016500D01*
X0256800Y0014000D01*
X0256800Y0009000D01*
X0254300Y0006500D01*
X0249300Y0006500D01*
X0246800Y0009000D01*
X0244300Y0006500D01*
X0239300Y0006500D01*
X0236800Y0009000D01*
X0234300Y0006500D01*
X0229300Y0006500D01*
X0226800Y0009000D01*
X0224300Y0006500D01*
X0219300Y0006500D01*
X0216800Y0009000D01*
X0226800Y0009000D02*
X0226800Y0014000D01*
X0224857Y0019348D02*
X0222589Y0019348D01*
X0224857Y0021617D01*
X0224857Y0022184D01*
X0224290Y0022751D01*
X0223156Y0022751D01*
X0222589Y0022184D01*
X0221174Y0021617D02*
X0221174Y0019348D01*
X0221174Y0021049D02*
X0218906Y0021049D01*
X0218906Y0021617D02*
X0220040Y0022751D01*
X0221174Y0021617D01*
X0218906Y0021617D02*
X0218906Y0019348D01*
X0228906Y0019348D02*
X0228906Y0021617D01*
X0230040Y0022751D01*
X0231174Y0021617D01*
X0231174Y0019348D01*
X0232589Y0019915D02*
X0233156Y0019348D01*
X0234290Y0019348D01*
X0234857Y0019915D01*
X0234857Y0020482D01*
X0234290Y0021049D01*
X0233723Y0021049D01*
X0234290Y0021049D02*
X0234857Y0021617D01*
X0234857Y0022184D01*
X0234290Y0022751D01*
X0233156Y0022751D01*
X0232589Y0022184D01*
X0231174Y0021049D02*
X0228906Y0021049D01*
X0236800Y0014000D02*
X0236800Y0009000D01*
X0238906Y0019348D02*
X0238906Y0021617D01*
X0240040Y0022751D01*
X0241174Y0021617D01*
X0241174Y0019348D01*
X0241174Y0021049D02*
X0238906Y0021049D01*
X0242589Y0021049D02*
X0244857Y0021049D01*
X0244290Y0019348D02*
X0244290Y0022751D01*
X0242589Y0021049D01*
X0248906Y0021049D02*
X0251174Y0021049D01*
X0251174Y0021617D02*
X0251174Y0019348D01*
X0252589Y0019915D02*
X0253156Y0019348D01*
X0254290Y0019348D01*
X0254857Y0019915D01*
X0254857Y0021049D01*
X0254290Y0021617D01*
X0253723Y0021617D01*
X0252589Y0021049D01*
X0252589Y0022751D01*
X0254857Y0022751D01*
X0251174Y0021617D02*
X0250040Y0022751D01*
X0248906Y0021617D01*
X0248906Y0019348D01*
X0246800Y0014000D02*
X0246800Y0009000D01*
X0186800Y0009000D02*
X0184300Y0006500D01*
X0179300Y0006500D01*
X0176800Y0009000D01*
X0174300Y0006500D01*
X0169300Y0006500D01*
X0166800Y0009000D01*
X0164300Y0006500D01*
X0159300Y0006500D01*
X0156800Y0009000D01*
X0154300Y0006500D01*
X0149300Y0006500D01*
X0146800Y0009000D01*
X0144300Y0006500D01*
X0139300Y0006500D01*
X0136800Y0009000D01*
X0134300Y0006500D01*
X0129300Y0006500D01*
X0126800Y0009000D01*
X0124300Y0006500D01*
X0119300Y0006500D01*
X0116800Y0009000D01*
X0114300Y0006500D01*
X0109300Y0006500D01*
X0106800Y0009000D01*
X0106800Y0014000D01*
X0109300Y0016500D01*
X0114300Y0016500D01*
X0116800Y0014000D01*
X0119300Y0016500D01*
X0124300Y0016500D01*
X0126800Y0014000D01*
X0126800Y0009000D01*
X0126800Y0014000D02*
X0129300Y0016500D01*
X0134300Y0016500D01*
X0136800Y0014000D01*
X0139300Y0016500D01*
X0144300Y0016500D01*
X0146800Y0014000D01*
X0149300Y0016500D01*
X0154300Y0016500D01*
X0156800Y0014000D01*
X0156800Y0009000D01*
X0156800Y0014000D02*
X0159300Y0016500D01*
X0164300Y0016500D01*
X0166800Y0014000D01*
X0169300Y0016500D01*
X0174300Y0016500D01*
X0176800Y0014000D01*
X0179300Y0016500D01*
X0184300Y0016500D01*
X0186800Y0014000D01*
X0186800Y0009000D01*
X0176800Y0009000D02*
X0176800Y0014000D01*
X0166800Y0014000D02*
X0166800Y0009000D01*
X0146800Y0009000D02*
X0146800Y0014000D01*
X0136800Y0014000D02*
X0136800Y0009000D01*
X0116800Y0009000D02*
X0116800Y0014000D01*
X0114300Y0054000D02*
X0109300Y0054000D01*
X0106800Y0056500D01*
X0104300Y0054000D01*
X0099300Y0054000D01*
X0096800Y0056500D01*
X0096800Y0061500D01*
X0099300Y0064000D01*
X0104300Y0064000D01*
X0106800Y0061500D01*
X0109300Y0064000D01*
X0114300Y0064000D01*
X0116800Y0061500D01*
X0116800Y0056500D01*
X0114300Y0054000D01*
X0106800Y0056500D02*
X0106800Y0061500D01*
X0105115Y0093311D02*
X0104745Y0093311D01*
X0101572Y0093311D02*
X0101202Y0093311D01*
X0101202Y0099689D01*
X0101572Y0099689D01*
X0104745Y0099689D02*
X0108855Y0099689D01*
X0112028Y0099689D02*
X0112398Y0099689D01*
X0112398Y0093311D01*
X0112028Y0093311D01*
X0108855Y0093311D02*
X0108485Y0093311D01*
X0124118Y0122800D02*
X0125252Y0122800D01*
X0125819Y0123367D01*
X0125819Y0126203D01*
X0127234Y0125636D02*
X0127801Y0126203D01*
X0128935Y0126203D01*
X0129502Y0125636D01*
X0128935Y0124501D02*
X0127801Y0124501D01*
X0127234Y0125069D01*
X0127234Y0125636D01*
X0128368Y0126770D02*
X0128368Y0122233D01*
X0127801Y0122800D02*
X0128935Y0122800D01*
X0129502Y0123367D01*
X0129502Y0123934D01*
X0128935Y0124501D01*
X0130917Y0124501D02*
X0133185Y0124501D01*
X0132618Y0122800D02*
X0132618Y0126203D01*
X0130917Y0124501D01*
X0127801Y0122800D02*
X0127234Y0123367D01*
X0124118Y0122800D02*
X0123551Y0123367D01*
X0123551Y0126203D01*
X0156684Y0037203D02*
X0158386Y0037203D01*
X0158953Y0036636D01*
X0158953Y0036069D01*
X0158386Y0035501D01*
X0156684Y0035501D01*
X0156684Y0033800D02*
X0158386Y0033800D01*
X0158953Y0034367D01*
X0158953Y0034934D01*
X0158386Y0035501D01*
X0156684Y0033800D02*
X0156684Y0037203D01*
X0160367Y0037203D02*
X0160367Y0033800D01*
X0162636Y0033800D01*
X0164051Y0033800D02*
X0164051Y0037203D01*
X0165185Y0036069D01*
X0166319Y0037203D01*
X0166319Y0033800D01*
X0167734Y0033800D02*
X0170002Y0036069D01*
X0170002Y0036636D01*
X0169435Y0037203D01*
X0168301Y0037203D01*
X0167734Y0036636D01*
X0167734Y0033800D02*
X0170002Y0033800D01*
X0171417Y0033800D02*
X0173685Y0033800D01*
X0172551Y0033800D02*
X0172551Y0037203D01*
X0171417Y0036069D01*
D12*
X0201300Y0030237D02*
X0201300Y0026500D01*
X0201300Y0029302D02*
X0205037Y0029302D01*
X0205037Y0030237D02*
X0205037Y0026500D01*
X0207377Y0026500D02*
X0207377Y0032105D01*
X0211114Y0026500D01*
X0211114Y0032105D01*
X0213454Y0030237D02*
X0213454Y0026500D01*
X0213454Y0029302D02*
X0217191Y0029302D01*
X0217191Y0030237D02*
X0217191Y0026500D01*
X0219532Y0026500D02*
X0219532Y0032105D01*
X0217191Y0030237D02*
X0215323Y0032105D01*
X0213454Y0030237D01*
X0219532Y0026500D02*
X0223268Y0026500D01*
X0225609Y0027434D02*
X0225609Y0031171D01*
X0226543Y0032105D01*
X0228411Y0032105D01*
X0229345Y0031171D01*
X0229345Y0027434D01*
X0228411Y0026500D01*
X0226543Y0026500D01*
X0225609Y0027434D01*
X0231686Y0027434D02*
X0232620Y0026500D01*
X0234488Y0026500D01*
X0235422Y0027434D01*
X0235422Y0029302D01*
X0233554Y0029302D01*
X0231686Y0027434D02*
X0231686Y0031171D01*
X0232620Y0032105D01*
X0234488Y0032105D01*
X0235422Y0031171D01*
X0243840Y0032105D02*
X0245709Y0032105D01*
X0244774Y0032105D02*
X0244774Y0026500D01*
X0243840Y0026500D02*
X0245709Y0026500D01*
X0247892Y0026500D02*
X0247892Y0032105D01*
X0251628Y0026500D01*
X0251628Y0032105D01*
X0205037Y0030237D02*
X0203168Y0032105D01*
X0201300Y0030237D01*
D13*
X0196818Y0170534D02*
X0196818Y0174471D01*
X0194850Y0172503D02*
X0198787Y0172503D01*
X0168787Y0172503D02*
X0164850Y0172503D01*
D14*
X0049447Y0032267D02*
X0050064Y0031650D01*
X0050681Y0031650D01*
X0051298Y0032267D01*
X0051298Y0033502D01*
X0051916Y0034119D01*
X0052533Y0034119D01*
X0053150Y0033502D01*
X0053150Y0032267D01*
X0052533Y0031650D01*
X0055447Y0031650D02*
X0056681Y0032884D01*
X0055447Y0034119D01*
X0059150Y0034119D01*
X0059150Y0035333D02*
X0059150Y0037802D01*
X0059150Y0039016D02*
X0059150Y0040868D01*
X0058533Y0041485D01*
X0056064Y0041485D01*
X0055447Y0040868D01*
X0055447Y0039016D01*
X0059150Y0039016D01*
X0057298Y0036568D02*
X0057298Y0035333D01*
X0055447Y0035333D02*
X0059150Y0035333D01*
X0059150Y0031650D02*
X0055447Y0031650D01*
X0055447Y0035333D02*
X0055447Y0037802D01*
X0053150Y0037802D02*
X0049447Y0037802D01*
X0050681Y0039016D02*
X0049447Y0040251D01*
X0050681Y0041485D01*
X0053150Y0041485D01*
X0053150Y0042699D02*
X0049447Y0042699D01*
X0049447Y0044551D01*
X0050064Y0045168D01*
X0051298Y0045168D01*
X0051916Y0044551D01*
X0051916Y0042699D01*
X0051298Y0041485D02*
X0051298Y0039016D01*
X0050681Y0039016D02*
X0053150Y0039016D01*
X0051298Y0037802D02*
X0051298Y0035333D01*
X0050064Y0034119D02*
X0049447Y0033502D01*
X0049447Y0032267D01*
X0049447Y0035333D02*
X0053150Y0035333D01*
X0055447Y0042699D02*
X0059150Y0042699D01*
X0059150Y0045168D01*
X0059150Y0046383D02*
X0056681Y0046383D01*
X0055447Y0047617D01*
X0056681Y0048851D01*
X0059150Y0048851D01*
X0059150Y0050066D02*
X0055447Y0050066D01*
X0055447Y0051917D01*
X0056064Y0052534D01*
X0056681Y0052534D01*
X0057298Y0051917D01*
X0057298Y0050066D01*
X0057298Y0048851D02*
X0057298Y0046383D01*
X0059150Y0050066D02*
X0059150Y0051917D01*
X0058533Y0052534D01*
X0057916Y0052534D01*
X0057298Y0051917D01*
X0053150Y0051917D02*
X0052533Y0052534D01*
X0051916Y0052534D01*
X0051298Y0051917D01*
X0051298Y0050683D01*
X0050681Y0050066D01*
X0050064Y0050066D01*
X0049447Y0050683D01*
X0049447Y0051917D01*
X0050064Y0052534D01*
X0049447Y0053749D02*
X0053150Y0053749D01*
X0053150Y0056218D01*
X0051298Y0054983D02*
X0051298Y0053749D01*
X0049447Y0053749D02*
X0049447Y0056218D01*
X0049447Y0057432D02*
X0049447Y0059901D01*
X0049447Y0061115D02*
X0049447Y0063584D01*
X0049447Y0064798D02*
X0049447Y0066033D01*
X0049447Y0065415D02*
X0053150Y0065415D01*
X0053150Y0064798D02*
X0053150Y0066033D01*
X0053150Y0067254D02*
X0049447Y0067254D01*
X0053150Y0069723D01*
X0049447Y0069723D01*
X0050064Y0070937D02*
X0052533Y0070937D01*
X0053150Y0071554D01*
X0053150Y0072788D01*
X0052533Y0073406D01*
X0051298Y0073406D01*
X0051298Y0072171D01*
X0050064Y0070937D02*
X0049447Y0071554D01*
X0049447Y0072788D01*
X0050064Y0073406D01*
X0049447Y0078303D02*
X0049447Y0080155D01*
X0050064Y0080772D01*
X0050681Y0080772D01*
X0051298Y0080155D01*
X0051298Y0078303D01*
X0049447Y0078303D02*
X0053150Y0078303D01*
X0053150Y0080155D01*
X0052533Y0080772D01*
X0051916Y0080772D01*
X0051298Y0080155D01*
X0050064Y0081986D02*
X0052533Y0081986D01*
X0053150Y0082603D01*
X0053150Y0083838D01*
X0052533Y0084455D01*
X0050064Y0084455D01*
X0049447Y0083838D01*
X0049447Y0082603D01*
X0050064Y0081986D01*
X0050681Y0085669D02*
X0049447Y0086904D01*
X0050681Y0088138D01*
X0053150Y0088138D01*
X0053150Y0089353D02*
X0049447Y0089353D01*
X0049447Y0091204D01*
X0050064Y0091821D01*
X0051298Y0091821D01*
X0051916Y0091204D01*
X0051916Y0089353D01*
X0051916Y0090587D02*
X0053150Y0091821D01*
X0053150Y0093036D02*
X0053150Y0094887D01*
X0052533Y0095505D01*
X0050064Y0095505D01*
X0049447Y0094887D01*
X0049447Y0093036D01*
X0053150Y0093036D01*
X0055447Y0089366D02*
X0055447Y0086897D01*
X0059150Y0086897D01*
X0059150Y0089366D01*
X0057298Y0088132D02*
X0057298Y0086897D01*
X0055447Y0085683D02*
X0059150Y0085683D01*
X0059150Y0083214D02*
X0055447Y0083214D01*
X0056681Y0084448D01*
X0055447Y0085683D01*
X0053150Y0085669D02*
X0050681Y0085669D01*
X0051298Y0085669D02*
X0051298Y0088138D01*
X0056064Y0078317D02*
X0056681Y0078317D01*
X0057298Y0077699D01*
X0057298Y0076465D01*
X0056681Y0075848D01*
X0056064Y0075848D01*
X0055447Y0076465D01*
X0055447Y0077699D01*
X0056064Y0078317D01*
X0057298Y0077699D02*
X0057916Y0078317D01*
X0058533Y0078317D01*
X0059150Y0077699D01*
X0059150Y0076465D01*
X0058533Y0075848D01*
X0057916Y0075848D01*
X0057298Y0076465D01*
X0059150Y0074633D02*
X0059150Y0072165D01*
X0059150Y0073399D02*
X0055447Y0073399D01*
X0056681Y0072165D01*
X0056064Y0070950D02*
X0058533Y0068481D01*
X0059150Y0069099D01*
X0059150Y0070333D01*
X0058533Y0070950D01*
X0056064Y0070950D01*
X0055447Y0070333D01*
X0055447Y0069099D01*
X0056064Y0068481D01*
X0058533Y0068481D01*
X0059150Y0067267D02*
X0059150Y0064798D01*
X0056681Y0067267D01*
X0056064Y0067267D01*
X0055447Y0066650D01*
X0055447Y0065415D01*
X0056064Y0064798D01*
X0055447Y0063584D02*
X0059150Y0061115D01*
X0056064Y0059901D02*
X0058533Y0057432D01*
X0059150Y0057432D01*
X0055447Y0057432D02*
X0055447Y0059901D01*
X0056064Y0059901D01*
X0053150Y0058666D02*
X0049447Y0058666D01*
X0049447Y0062350D02*
X0053150Y0062350D01*
X0053150Y0051917D02*
X0053150Y0050683D01*
X0052533Y0050066D01*
X0053150Y0048851D02*
X0053150Y0046383D01*
X0049447Y0046383D01*
X0049447Y0048851D01*
X0051298Y0047617D02*
X0051298Y0046383D01*
X0051916Y0100402D02*
X0053150Y0101636D01*
X0051916Y0102871D01*
X0049447Y0102871D01*
X0050064Y0104085D02*
X0049447Y0104702D01*
X0049447Y0105937D01*
X0050064Y0106554D01*
X0050681Y0106554D01*
X0053150Y0104085D01*
X0053150Y0106554D01*
X0053150Y0107768D02*
X0053150Y0108386D01*
X0052533Y0108386D01*
X0052533Y0107768D01*
X0053150Y0107768D01*
X0052533Y0109610D02*
X0050064Y0112079D01*
X0052533Y0112079D01*
X0053150Y0111461D01*
X0053150Y0110227D01*
X0052533Y0109610D01*
X0050064Y0109610D01*
X0049447Y0110227D01*
X0049447Y0111461D01*
X0050064Y0112079D01*
X0049447Y0100402D02*
X0051916Y0100402D01*
X0197650Y0115134D02*
X0200786Y0118270D01*
X0199218Y0118270D02*
X0199218Y0115134D01*
X0200786Y0115134D02*
X0197650Y0118270D01*
X0197650Y0116702D02*
X0200786Y0116702D01*
D15*
X0221996Y0151700D02*
X0225833Y0151700D01*
X0226600Y0152467D01*
X0226600Y0154002D01*
X0225833Y0154769D01*
X0221996Y0154769D01*
X0222763Y0156304D02*
X0221996Y0157071D01*
X0221996Y0158606D01*
X0222763Y0159373D01*
X0221996Y0160908D02*
X0224298Y0160908D01*
X0223531Y0162442D01*
X0223531Y0163210D01*
X0224298Y0163977D01*
X0225833Y0163977D01*
X0226600Y0163210D01*
X0226600Y0161675D01*
X0225833Y0160908D01*
X0225833Y0159373D02*
X0225065Y0159373D01*
X0224298Y0158606D01*
X0224298Y0157071D01*
X0223531Y0156304D01*
X0222763Y0156304D01*
X0221229Y0157839D02*
X0227367Y0157839D01*
X0226600Y0158606D02*
X0225833Y0159373D01*
X0226600Y0158606D02*
X0226600Y0157071D01*
X0225833Y0156304D01*
X0221996Y0160908D02*
X0221996Y0163977D01*
X0108692Y0097301D02*
X0108692Y0095700D01*
X0108158Y0095700D02*
X0109226Y0095700D01*
X0108158Y0096768D02*
X0108692Y0097301D01*
X0107384Y0097034D02*
X0107118Y0097301D01*
X0106584Y0097301D01*
X0106317Y0097034D01*
X0106317Y0096768D01*
X0106584Y0096501D01*
X0107118Y0096501D01*
X0107384Y0096234D01*
X0107384Y0095967D01*
X0107118Y0095700D01*
X0106584Y0095700D01*
X0106317Y0095967D01*
X0106851Y0095433D02*
X0106851Y0097568D01*
X0105543Y0097301D02*
X0105543Y0095967D01*
X0105276Y0095700D01*
X0104742Y0095700D01*
X0104475Y0095967D01*
X0104475Y0097301D01*
D16*
X0086550Y0095239D02*
X0086550Y0094405D01*
X0086133Y0093988D01*
X0085299Y0094405D02*
X0085299Y0095656D01*
X0086133Y0095656D02*
X0084465Y0095656D01*
X0084048Y0095239D01*
X0084048Y0094405D01*
X0084465Y0093988D01*
X0084882Y0093988D01*
X0085299Y0094405D01*
X0086550Y0095239D02*
X0086133Y0095656D01*
X0086133Y0092893D02*
X0086550Y0092476D01*
X0086550Y0091642D01*
X0086133Y0091225D01*
X0084465Y0091225D01*
X0084048Y0091642D01*
X0084048Y0092476D01*
X0084465Y0092893D01*
X0102550Y0072252D02*
X0102550Y0069750D01*
X0102550Y0070584D02*
X0103801Y0070584D01*
X0104218Y0071001D01*
X0104218Y0071835D01*
X0103801Y0072252D01*
X0102550Y0072252D01*
X0103384Y0070584D02*
X0104218Y0069750D01*
X0105312Y0069750D02*
X0106980Y0069750D01*
X0106146Y0069750D02*
X0106146Y0072252D01*
X0105312Y0071418D01*
X0139525Y0049835D02*
X0139525Y0048167D01*
X0139942Y0047750D01*
X0140776Y0047750D01*
X0141193Y0048167D01*
X0142288Y0047750D02*
X0143956Y0047750D01*
X0143122Y0047750D02*
X0143122Y0050252D01*
X0142288Y0049418D01*
X0141193Y0049835D02*
X0140776Y0050252D01*
X0139942Y0050252D01*
X0139525Y0049835D01*
X0140442Y0056750D02*
X0141276Y0056750D01*
X0141693Y0057167D01*
X0142788Y0056750D02*
X0144456Y0058418D01*
X0144456Y0058835D01*
X0144039Y0059252D01*
X0143205Y0059252D01*
X0142788Y0058835D01*
X0141693Y0058835D02*
X0141276Y0059252D01*
X0140442Y0059252D01*
X0140025Y0058835D01*
X0140025Y0057167D01*
X0140442Y0056750D01*
X0142788Y0056750D02*
X0144456Y0056750D01*
X0144039Y0066750D02*
X0143205Y0066750D01*
X0142788Y0067167D01*
X0141693Y0067167D02*
X0141276Y0066750D01*
X0140442Y0066750D01*
X0140025Y0067167D01*
X0140025Y0068835D01*
X0140442Y0069252D01*
X0141276Y0069252D01*
X0141693Y0068835D01*
X0142788Y0068835D02*
X0143205Y0069252D01*
X0144039Y0069252D01*
X0144456Y0068835D01*
X0144456Y0068418D01*
X0144039Y0068001D01*
X0144456Y0067584D01*
X0144456Y0067167D01*
X0144039Y0066750D01*
X0144039Y0068001D02*
X0143622Y0068001D01*
X0183048Y0053739D02*
X0183465Y0054156D01*
X0183882Y0054156D01*
X0184299Y0053739D01*
X0184716Y0054156D01*
X0185133Y0054156D01*
X0185550Y0053739D01*
X0185550Y0052905D01*
X0185133Y0052488D01*
X0185550Y0051393D02*
X0184716Y0050559D01*
X0184716Y0050976D02*
X0184716Y0049725D01*
X0185550Y0049725D02*
X0183048Y0049725D01*
X0183048Y0050976D01*
X0183465Y0051393D01*
X0184299Y0051393D01*
X0184716Y0050976D01*
X0183465Y0052488D02*
X0183048Y0052905D01*
X0183048Y0053739D01*
X0184299Y0053739D02*
X0184299Y0053322D01*
X0213667Y0091750D02*
X0213250Y0092167D01*
X0213250Y0094252D01*
X0214918Y0094252D02*
X0214918Y0092167D01*
X0214501Y0091750D01*
X0213667Y0091750D01*
X0216012Y0091750D02*
X0217680Y0091750D01*
X0216846Y0091750D02*
X0216846Y0094252D01*
X0216012Y0093418D01*
X0232442Y0067252D02*
X0232025Y0066835D01*
X0232025Y0065167D01*
X0232442Y0064750D01*
X0233276Y0064750D01*
X0233693Y0065167D01*
X0234788Y0065167D02*
X0234788Y0064750D01*
X0234788Y0065167D02*
X0236456Y0066835D01*
X0236456Y0067252D01*
X0234788Y0067252D01*
X0233693Y0066835D02*
X0233276Y0067252D01*
X0232442Y0067252D01*
X0244300Y0075350D02*
X0244300Y0047650D01*
X0244302Y0047467D01*
X0244309Y0047285D01*
X0244320Y0047103D01*
X0244336Y0046921D01*
X0244356Y0046739D01*
X0244380Y0046558D01*
X0244409Y0046378D01*
X0244442Y0046198D01*
X0244479Y0046019D01*
X0244521Y0045841D01*
X0244568Y0045665D01*
X0244618Y0045489D01*
X0244673Y0045315D01*
X0244732Y0045142D01*
X0244795Y0044971D01*
X0244862Y0044801D01*
X0244934Y0044633D01*
X0245009Y0044467D01*
X0245089Y0044302D01*
X0245172Y0044140D01*
X0245260Y0043979D01*
X0245351Y0043821D01*
X0245446Y0043665D01*
X0245545Y0043512D01*
X0245648Y0043361D01*
X0245754Y0043212D01*
X0245864Y0043066D01*
X0245977Y0042923D01*
X0246094Y0042783D01*
X0246214Y0042645D01*
X0246338Y0042511D01*
X0246465Y0042379D01*
X0246594Y0042251D01*
X0246727Y0042126D01*
X0246863Y0042004D01*
X0247002Y0041885D01*
X0247144Y0041770D01*
X0247289Y0041658D01*
X0247436Y0041550D01*
X0247586Y0041446D01*
X0247738Y0041345D01*
X0247893Y0041248D01*
X0248050Y0041155D01*
X0248209Y0041065D01*
X0248371Y0040980D01*
X0248534Y0040898D01*
X0248699Y0040821D01*
X0248867Y0040747D01*
X0249036Y0040678D01*
X0249206Y0040613D01*
X0249378Y0040552D01*
X0249552Y0040495D01*
X0249727Y0040442D01*
X0249903Y0040394D01*
X0250080Y0040350D01*
X0250259Y0040310D01*
X0250438Y0040275D01*
X0250618Y0040244D01*
X0250798Y0040217D01*
X0250980Y0040195D01*
X0251161Y0040177D01*
X0251344Y0040164D01*
X0251526Y0040155D01*
X0251709Y0040151D01*
X0251891Y0040151D01*
X0252074Y0040155D01*
X0252256Y0040164D01*
X0252439Y0040177D01*
X0252620Y0040195D01*
X0252802Y0040217D01*
X0252982Y0040244D01*
X0253162Y0040275D01*
X0253341Y0040310D01*
X0253520Y0040350D01*
X0253697Y0040394D01*
X0253873Y0040442D01*
X0254048Y0040495D01*
X0254222Y0040552D01*
X0254394Y0040613D01*
X0254564Y0040678D01*
X0254733Y0040747D01*
X0254901Y0040821D01*
X0255066Y0040898D01*
X0255229Y0040980D01*
X0255391Y0041065D01*
X0255550Y0041155D01*
X0255707Y0041248D01*
X0255862Y0041345D01*
X0256014Y0041446D01*
X0256164Y0041550D01*
X0256311Y0041658D01*
X0256456Y0041770D01*
X0256598Y0041885D01*
X0256737Y0042004D01*
X0256873Y0042126D01*
X0257006Y0042251D01*
X0257135Y0042379D01*
X0257262Y0042511D01*
X0257386Y0042645D01*
X0257506Y0042783D01*
X0257623Y0042923D01*
X0257736Y0043066D01*
X0257846Y0043212D01*
X0257952Y0043361D01*
X0258055Y0043512D01*
X0258154Y0043665D01*
X0258249Y0043821D01*
X0258340Y0043979D01*
X0258428Y0044140D01*
X0258511Y0044302D01*
X0258591Y0044467D01*
X0258666Y0044633D01*
X0258738Y0044801D01*
X0258805Y0044971D01*
X0258868Y0045142D01*
X0258927Y0045315D01*
X0258982Y0045489D01*
X0259032Y0045665D01*
X0259079Y0045841D01*
X0259121Y0046019D01*
X0259158Y0046198D01*
X0259191Y0046378D01*
X0259220Y0046558D01*
X0259244Y0046739D01*
X0259264Y0046921D01*
X0259280Y0047103D01*
X0259291Y0047285D01*
X0259298Y0047467D01*
X0259300Y0047650D01*
X0259300Y0075350D01*
X0259298Y0075533D01*
X0259291Y0075715D01*
X0259280Y0075897D01*
X0259264Y0076079D01*
X0259244Y0076261D01*
X0259220Y0076442D01*
X0259191Y0076622D01*
X0259158Y0076802D01*
X0259121Y0076981D01*
X0259079Y0077159D01*
X0259032Y0077335D01*
X0258982Y0077511D01*
X0258927Y0077685D01*
X0258868Y0077858D01*
X0258805Y0078029D01*
X0258738Y0078199D01*
X0258666Y0078367D01*
X0258591Y0078533D01*
X0258511Y0078698D01*
X0258428Y0078860D01*
X0258340Y0079021D01*
X0258249Y0079179D01*
X0258154Y0079335D01*
X0258055Y0079488D01*
X0257952Y0079639D01*
X0257846Y0079788D01*
X0257736Y0079934D01*
X0257623Y0080077D01*
X0257506Y0080217D01*
X0257386Y0080355D01*
X0257262Y0080489D01*
X0257135Y0080621D01*
X0257006Y0080749D01*
X0256873Y0080874D01*
X0256737Y0080996D01*
X0256598Y0081115D01*
X0256456Y0081230D01*
X0256311Y0081342D01*
X0256164Y0081450D01*
X0256014Y0081554D01*
X0255862Y0081655D01*
X0255707Y0081752D01*
X0255550Y0081845D01*
X0255391Y0081935D01*
X0255229Y0082020D01*
X0255066Y0082102D01*
X0254901Y0082179D01*
X0254733Y0082253D01*
X0254564Y0082322D01*
X0254394Y0082387D01*
X0254222Y0082448D01*
X0254048Y0082505D01*
X0253873Y0082558D01*
X0253697Y0082606D01*
X0253520Y0082650D01*
X0253341Y0082690D01*
X0253162Y0082725D01*
X0252982Y0082756D01*
X0252802Y0082783D01*
X0252620Y0082805D01*
X0252439Y0082823D01*
X0252256Y0082836D01*
X0252074Y0082845D01*
X0251891Y0082849D01*
X0251709Y0082849D01*
X0251526Y0082845D01*
X0251344Y0082836D01*
X0251161Y0082823D01*
X0250980Y0082805D01*
X0250798Y0082783D01*
X0250618Y0082756D01*
X0250438Y0082725D01*
X0250259Y0082690D01*
X0250080Y0082650D01*
X0249903Y0082606D01*
X0249727Y0082558D01*
X0249552Y0082505D01*
X0249378Y0082448D01*
X0249206Y0082387D01*
X0249036Y0082322D01*
X0248867Y0082253D01*
X0248699Y0082179D01*
X0248534Y0082102D01*
X0248371Y0082020D01*
X0248209Y0081935D01*
X0248050Y0081845D01*
X0247893Y0081752D01*
X0247738Y0081655D01*
X0247586Y0081554D01*
X0247436Y0081450D01*
X0247289Y0081342D01*
X0247144Y0081230D01*
X0247002Y0081115D01*
X0246863Y0080996D01*
X0246727Y0080874D01*
X0246594Y0080749D01*
X0246465Y0080621D01*
X0246338Y0080489D01*
X0246214Y0080355D01*
X0246094Y0080217D01*
X0245977Y0080077D01*
X0245864Y0079934D01*
X0245754Y0079788D01*
X0245648Y0079639D01*
X0245545Y0079488D01*
X0245446Y0079335D01*
X0245351Y0079179D01*
X0245260Y0079021D01*
X0245172Y0078860D01*
X0245089Y0078698D01*
X0245009Y0078533D01*
X0244934Y0078367D01*
X0244862Y0078199D01*
X0244795Y0078029D01*
X0244732Y0077858D01*
X0244673Y0077685D01*
X0244618Y0077511D01*
X0244568Y0077335D01*
X0244521Y0077159D01*
X0244479Y0076981D01*
X0244442Y0076802D01*
X0244409Y0076622D01*
X0244380Y0076442D01*
X0244356Y0076261D01*
X0244336Y0076079D01*
X0244320Y0075897D01*
X0244309Y0075715D01*
X0244302Y0075533D01*
X0244300Y0075350D01*
X0236456Y0046752D02*
X0235622Y0046335D01*
X0234788Y0045501D01*
X0236039Y0045501D01*
X0236456Y0045084D01*
X0236456Y0044667D01*
X0236039Y0044250D01*
X0235205Y0044250D01*
X0234788Y0044667D01*
X0234788Y0045501D01*
X0233693Y0044667D02*
X0233276Y0044250D01*
X0232442Y0044250D01*
X0232025Y0044667D01*
X0232025Y0046335D01*
X0232442Y0046752D01*
X0233276Y0046752D01*
X0233693Y0046335D01*
X0182300Y0127500D02*
X0182338Y0127566D01*
X0182372Y0127634D01*
X0182402Y0127704D01*
X0182428Y0127775D01*
X0182451Y0127847D01*
X0182470Y0127921D01*
X0182486Y0127995D01*
X0182497Y0128071D01*
X0182504Y0128146D01*
X0182508Y0128222D01*
X0182507Y0128298D01*
X0182503Y0128374D01*
X0182494Y0128449D01*
X0182482Y0128524D01*
X0182466Y0128599D01*
X0182446Y0128672D01*
X0182422Y0128744D01*
X0182394Y0128815D01*
X0182363Y0128884D01*
X0182328Y0128952D01*
X0182290Y0129017D01*
X0182248Y0129081D01*
X0182203Y0129142D01*
X0182155Y0129201D01*
X0182104Y0129257D01*
X0182050Y0129311D01*
X0181993Y0129362D01*
X0181934Y0129409D01*
X0181873Y0129454D01*
X0181809Y0129495D01*
X0181743Y0129533D01*
X0181675Y0129567D01*
X0181606Y0129598D01*
X0181535Y0129625D01*
X0181462Y0129648D01*
X0181389Y0129668D01*
X0181315Y0129684D01*
X0181239Y0129696D01*
X0181164Y0129704D01*
X0181088Y0129708D01*
X0181012Y0129708D01*
X0180936Y0129704D01*
X0180861Y0129696D01*
X0180785Y0129684D01*
X0180711Y0129668D01*
X0180638Y0129648D01*
X0180565Y0129625D01*
X0180494Y0129598D01*
X0180425Y0129567D01*
X0180357Y0129533D01*
X0180291Y0129495D01*
X0180227Y0129454D01*
X0180166Y0129409D01*
X0180107Y0129362D01*
X0180050Y0129311D01*
X0179996Y0129257D01*
X0179945Y0129201D01*
X0179897Y0129142D01*
X0179852Y0129081D01*
X0179810Y0129017D01*
X0179772Y0128952D01*
X0179737Y0128884D01*
X0179706Y0128815D01*
X0179678Y0128744D01*
X0179654Y0128672D01*
X0179634Y0128599D01*
X0179618Y0128524D01*
X0179606Y0128449D01*
X0179597Y0128374D01*
X0179593Y0128298D01*
X0179592Y0128222D01*
X0179596Y0128146D01*
X0179603Y0128071D01*
X0179614Y0127995D01*
X0179630Y0127921D01*
X0179649Y0127847D01*
X0179672Y0127775D01*
X0179698Y0127704D01*
X0179728Y0127634D01*
X0179762Y0127566D01*
X0179800Y0127500D01*
X0154050Y0134167D02*
X0154050Y0135001D01*
X0153633Y0135418D01*
X0154050Y0136512D02*
X0154050Y0138180D01*
X0154050Y0137346D02*
X0151548Y0137346D01*
X0152382Y0136512D01*
X0151965Y0135418D02*
X0151548Y0135001D01*
X0151548Y0134167D01*
X0151965Y0133750D01*
X0153633Y0133750D01*
X0154050Y0134167D01*
X0153633Y0139275D02*
X0151965Y0139275D01*
X0151548Y0139692D01*
X0151548Y0140526D01*
X0151965Y0140943D01*
X0153633Y0139275D01*
X0154050Y0139692D01*
X0154050Y0140526D01*
X0153633Y0140943D01*
X0151965Y0140943D01*
X0167050Y0161250D02*
X0167050Y0163752D01*
X0168301Y0163752D01*
X0168718Y0163335D01*
X0168718Y0162501D01*
X0168301Y0162084D01*
X0167050Y0162084D01*
X0167884Y0162084D02*
X0168718Y0161250D01*
X0169812Y0161667D02*
X0170229Y0161250D01*
X0171063Y0161250D01*
X0171480Y0161667D01*
X0171480Y0162501D01*
X0171063Y0162918D01*
X0170646Y0162918D01*
X0169812Y0162501D01*
X0169812Y0163752D01*
X0171480Y0163752D01*
X0181050Y0163252D02*
X0181050Y0160750D01*
X0181050Y0161584D02*
X0182301Y0161584D01*
X0182718Y0162001D01*
X0182718Y0162835D01*
X0182301Y0163252D01*
X0181050Y0163252D01*
X0181884Y0161584D02*
X0182718Y0160750D01*
X0183812Y0162001D02*
X0185063Y0163252D01*
X0185063Y0160750D01*
X0185480Y0162001D02*
X0183812Y0162001D01*
X0194550Y0162084D02*
X0195801Y0162084D01*
X0196218Y0162501D01*
X0196218Y0163335D01*
X0195801Y0163752D01*
X0194550Y0163752D01*
X0194550Y0161250D01*
X0195384Y0162084D02*
X0196218Y0161250D01*
X0197312Y0161250D02*
X0198980Y0162918D01*
X0198980Y0163335D01*
X0198563Y0163752D01*
X0197729Y0163752D01*
X0197312Y0163335D01*
X0197312Y0161250D02*
X0198980Y0161250D01*
X0227157Y0135252D02*
X0227157Y0132550D01*
X0227157Y0133451D02*
X0228508Y0133451D01*
X0228959Y0133901D01*
X0228959Y0134802D01*
X0228508Y0135252D01*
X0227157Y0135252D01*
X0228058Y0133451D02*
X0228959Y0132550D01*
X0230103Y0132550D02*
X0230103Y0133000D01*
X0231905Y0134802D01*
X0231905Y0135252D01*
X0230103Y0135252D01*
X0230300Y0158500D02*
X0230366Y0158462D01*
X0230434Y0158428D01*
X0230504Y0158398D01*
X0230575Y0158372D01*
X0230647Y0158349D01*
X0230721Y0158330D01*
X0230795Y0158314D01*
X0230871Y0158303D01*
X0230946Y0158296D01*
X0231022Y0158292D01*
X0231098Y0158293D01*
X0231174Y0158297D01*
X0231249Y0158306D01*
X0231324Y0158318D01*
X0231399Y0158334D01*
X0231472Y0158354D01*
X0231544Y0158378D01*
X0231615Y0158406D01*
X0231684Y0158437D01*
X0231752Y0158472D01*
X0231817Y0158510D01*
X0231881Y0158552D01*
X0231942Y0158597D01*
X0232001Y0158645D01*
X0232057Y0158696D01*
X0232111Y0158750D01*
X0232162Y0158807D01*
X0232209Y0158866D01*
X0232254Y0158927D01*
X0232295Y0158991D01*
X0232333Y0159057D01*
X0232367Y0159125D01*
X0232398Y0159194D01*
X0232425Y0159265D01*
X0232448Y0159338D01*
X0232468Y0159411D01*
X0232484Y0159485D01*
X0232496Y0159561D01*
X0232504Y0159636D01*
X0232508Y0159712D01*
X0232508Y0159788D01*
X0232504Y0159864D01*
X0232496Y0159939D01*
X0232484Y0160015D01*
X0232468Y0160089D01*
X0232448Y0160162D01*
X0232425Y0160235D01*
X0232398Y0160306D01*
X0232367Y0160375D01*
X0232333Y0160443D01*
X0232295Y0160509D01*
X0232254Y0160573D01*
X0232209Y0160634D01*
X0232162Y0160693D01*
X0232111Y0160750D01*
X0232057Y0160804D01*
X0232001Y0160855D01*
X0231942Y0160903D01*
X0231881Y0160948D01*
X0231817Y0160990D01*
X0231752Y0161028D01*
X0231684Y0161063D01*
X0231615Y0161094D01*
X0231544Y0161122D01*
X0231472Y0161146D01*
X0231399Y0161166D01*
X0231324Y0161182D01*
X0231249Y0161194D01*
X0231174Y0161203D01*
X0231098Y0161207D01*
X0231022Y0161208D01*
X0230946Y0161204D01*
X0230871Y0161197D01*
X0230795Y0161186D01*
X0230721Y0161170D01*
X0230647Y0161151D01*
X0230575Y0161128D01*
X0230504Y0161102D01*
X0230434Y0161072D01*
X0230366Y0161038D01*
X0230300Y0161000D01*
X0131980Y0154335D02*
X0131980Y0153918D01*
X0131563Y0153501D01*
X0130729Y0153501D01*
X0130312Y0153918D01*
X0130312Y0154335D01*
X0130729Y0154752D01*
X0131563Y0154752D01*
X0131980Y0154335D01*
X0131563Y0153501D02*
X0131980Y0153084D01*
X0131980Y0152667D01*
X0131563Y0152250D01*
X0130729Y0152250D01*
X0130312Y0152667D01*
X0130312Y0153084D01*
X0130729Y0153501D01*
X0129218Y0152667D02*
X0128801Y0152250D01*
X0127967Y0152250D01*
X0127550Y0152667D01*
X0127550Y0154335D01*
X0127967Y0154752D01*
X0128801Y0154752D01*
X0129218Y0154335D01*
X0117800Y0126000D02*
X0117866Y0126038D01*
X0117934Y0126072D01*
X0118004Y0126102D01*
X0118075Y0126128D01*
X0118147Y0126151D01*
X0118221Y0126170D01*
X0118295Y0126186D01*
X0118371Y0126197D01*
X0118446Y0126204D01*
X0118522Y0126208D01*
X0118598Y0126207D01*
X0118674Y0126203D01*
X0118749Y0126194D01*
X0118824Y0126182D01*
X0118899Y0126166D01*
X0118972Y0126146D01*
X0119044Y0126122D01*
X0119115Y0126094D01*
X0119184Y0126063D01*
X0119252Y0126028D01*
X0119317Y0125990D01*
X0119381Y0125948D01*
X0119442Y0125903D01*
X0119501Y0125855D01*
X0119557Y0125804D01*
X0119611Y0125750D01*
X0119662Y0125693D01*
X0119709Y0125634D01*
X0119754Y0125573D01*
X0119795Y0125509D01*
X0119833Y0125443D01*
X0119867Y0125375D01*
X0119898Y0125306D01*
X0119925Y0125235D01*
X0119948Y0125162D01*
X0119968Y0125089D01*
X0119984Y0125015D01*
X0119996Y0124939D01*
X0120004Y0124864D01*
X0120008Y0124788D01*
X0120008Y0124712D01*
X0120004Y0124636D01*
X0119996Y0124561D01*
X0119984Y0124485D01*
X0119968Y0124411D01*
X0119948Y0124338D01*
X0119925Y0124265D01*
X0119898Y0124194D01*
X0119867Y0124125D01*
X0119833Y0124057D01*
X0119795Y0123991D01*
X0119754Y0123927D01*
X0119709Y0123866D01*
X0119662Y0123807D01*
X0119611Y0123750D01*
X0119557Y0123696D01*
X0119501Y0123645D01*
X0119442Y0123597D01*
X0119381Y0123552D01*
X0119317Y0123510D01*
X0119252Y0123472D01*
X0119184Y0123437D01*
X0119115Y0123406D01*
X0119044Y0123378D01*
X0118972Y0123354D01*
X0118899Y0123334D01*
X0118824Y0123318D01*
X0118749Y0123306D01*
X0118674Y0123297D01*
X0118598Y0123293D01*
X0118522Y0123292D01*
X0118446Y0123296D01*
X0118371Y0123303D01*
X0118295Y0123314D01*
X0118221Y0123330D01*
X0118147Y0123349D01*
X0118075Y0123372D01*
X0118004Y0123398D01*
X0117934Y0123428D01*
X0117866Y0123462D01*
X0117800Y0123500D01*
X0088100Y0129810D02*
X0088100Y0188190D01*
X0050500Y0188190D01*
X0050500Y0129810D01*
X0088100Y0129810D01*
X0085799Y0160438D02*
X0082046Y0160438D01*
X0082046Y0163441D02*
X0085799Y0163441D01*
X0086550Y0162690D01*
X0086550Y0161189D01*
X0085799Y0160438D01*
X0085799Y0165042D02*
X0086550Y0165793D01*
X0086550Y0167294D01*
X0085799Y0168045D01*
X0085049Y0168045D01*
X0084298Y0167294D01*
X0084298Y0165793D01*
X0083547Y0165042D01*
X0082797Y0165042D01*
X0082046Y0165793D01*
X0082046Y0167294D01*
X0082797Y0168045D01*
X0081296Y0166543D02*
X0087301Y0166543D01*
X0085799Y0169646D02*
X0084298Y0169646D01*
X0084298Y0171898D01*
X0085049Y0172649D01*
X0085799Y0172649D01*
X0086550Y0171898D01*
X0086550Y0170397D01*
X0085799Y0169646D01*
X0084298Y0169646D02*
X0082797Y0171147D01*
X0082046Y0172649D01*
D17*
X0213100Y0116300D02*
X0213102Y0116231D01*
X0213108Y0116163D01*
X0213118Y0116095D01*
X0213131Y0116028D01*
X0213149Y0115962D01*
X0213170Y0115897D01*
X0213195Y0115833D01*
X0213223Y0115771D01*
X0213255Y0115710D01*
X0213290Y0115651D01*
X0213329Y0115595D01*
X0213371Y0115540D01*
X0213416Y0115489D01*
X0213464Y0115439D01*
X0213514Y0115393D01*
X0213567Y0115350D01*
X0213623Y0115309D01*
X0213680Y0115272D01*
X0213740Y0115239D01*
X0213802Y0115208D01*
X0213865Y0115182D01*
X0213929Y0115159D01*
X0213995Y0115139D01*
X0214062Y0115124D01*
X0214129Y0115112D01*
X0214197Y0115104D01*
X0214266Y0115100D01*
X0214334Y0115100D01*
X0214403Y0115104D01*
X0214471Y0115112D01*
X0214538Y0115124D01*
X0214605Y0115139D01*
X0214671Y0115159D01*
X0214735Y0115182D01*
X0214798Y0115208D01*
X0214860Y0115239D01*
X0214920Y0115272D01*
X0214977Y0115309D01*
X0215033Y0115350D01*
X0215086Y0115393D01*
X0215136Y0115439D01*
X0215184Y0115489D01*
X0215229Y0115540D01*
X0215271Y0115595D01*
X0215310Y0115651D01*
X0215345Y0115710D01*
X0215377Y0115771D01*
X0215405Y0115833D01*
X0215430Y0115897D01*
X0215451Y0115962D01*
X0215469Y0116028D01*
X0215482Y0116095D01*
X0215492Y0116163D01*
X0215498Y0116231D01*
X0215500Y0116300D01*
M02*
