G75*
%MOIN*%
%OFA0B0*%
%FSLAX25Y25*%
%IPPOS*%
%LPD*%
%AMOC8*
5,1,8,0,0,1.08239X$1,22.5*
%
%ADD10C,0.06000*%
%ADD11OC8,0.06000*%
%ADD12R,0.05906X0.05118*%
%ADD13R,0.03937X0.04331*%
%ADD14C,0.03962*%
%ADD15R,0.04331X0.03937*%
%ADD16R,0.03100X0.03100*%
%ADD17C,0.01200*%
%ADD18R,0.03962X0.03962*%
%ADD19C,0.03569*%
%ADD20C,0.03100*%
%ADD21C,0.01600*%
%ADD22C,0.02400*%
%ADD23C,0.04000*%
%ADD24C,0.05906*%
%ADD25C,0.05000*%
%ADD26C,0.16535*%
%ADD27C,0.06496*%
D10*
X0101800Y0056000D02*
X0101800Y0062000D01*
X0111800Y0062000D02*
X0111800Y0056000D01*
X0111800Y0014500D02*
X0111800Y0008500D01*
X0121800Y0008500D02*
X0121800Y0014500D01*
X0131800Y0014500D02*
X0131800Y0008500D01*
X0141800Y0008500D02*
X0141800Y0014500D01*
X0151800Y0014500D02*
X0151800Y0008500D01*
X0161800Y0008500D02*
X0161800Y0014500D01*
X0171800Y0014500D02*
X0171800Y0008500D01*
X0181800Y0008500D02*
X0181800Y0014500D01*
X0201800Y0014500D02*
X0201800Y0008500D01*
X0211800Y0008500D02*
X0211800Y0014500D01*
X0221800Y0014500D02*
X0221800Y0008500D01*
X0231800Y0008500D02*
X0231800Y0014500D01*
X0241800Y0014500D02*
X0241800Y0008500D01*
X0251800Y0008500D02*
X0251800Y0014500D01*
X0251800Y0198500D02*
X0251800Y0204500D01*
X0241800Y0204500D02*
X0241800Y0198500D01*
X0231800Y0198500D02*
X0231800Y0204500D01*
X0221800Y0204500D02*
X0221800Y0198500D01*
X0211800Y0198500D02*
X0211800Y0204500D01*
X0201800Y0204500D02*
X0201800Y0198500D01*
X0191800Y0198500D02*
X0191800Y0204500D01*
X0181800Y0204500D02*
X0181800Y0198500D01*
X0165800Y0198500D02*
X0165800Y0204500D01*
X0155800Y0204500D02*
X0155800Y0198500D01*
X0145800Y0198500D02*
X0145800Y0204500D01*
X0135800Y0204500D02*
X0135800Y0198500D01*
X0125800Y0198500D02*
X0125800Y0204500D01*
X0115800Y0204500D02*
X0115800Y0198500D01*
X0105800Y0198500D02*
X0105800Y0204500D01*
X0095800Y0204500D02*
X0095800Y0198500D01*
X0085800Y0198500D02*
X0085800Y0204500D01*
X0075800Y0204500D02*
X0075800Y0198500D01*
D11*
X0074300Y0169000D03*
X0074300Y0159000D03*
X0074300Y0149000D03*
X0064300Y0149000D03*
X0064300Y0159000D03*
X0064300Y0169000D03*
X0239300Y0184000D03*
X0252300Y0121500D03*
X0252300Y0111500D03*
X0252300Y0101500D03*
X0262300Y0101500D03*
X0262300Y0111500D03*
X0262300Y0121500D03*
D12*
X0218800Y0106846D03*
X0218800Y0100154D03*
D13*
X0210300Y0100154D03*
X0210300Y0106846D03*
X0189300Y0082346D03*
X0189300Y0075654D03*
D14*
X0231800Y0141500D03*
X0231800Y0176500D03*
X0226800Y0186500D03*
X0209300Y0186500D03*
X0251800Y0071100D03*
X0251800Y0051900D03*
D15*
X0242646Y0149000D03*
X0235954Y0149000D03*
X0235954Y0169000D03*
X0242646Y0169000D03*
D16*
X0246800Y0176500D03*
X0246800Y0141500D03*
X0201800Y0144000D03*
X0201800Y0129000D03*
X0192800Y0109000D03*
X0192100Y0102800D03*
X0166800Y0066500D03*
X0166800Y0051500D03*
X0134300Y0104000D03*
X0116800Y0076500D03*
X0106800Y0084000D03*
X0094300Y0084000D03*
X0139300Y0144000D03*
X0159800Y0146500D03*
X0224300Y0071500D03*
X0224300Y0051500D03*
X0219300Y0039000D03*
D17*
X0011800Y0021500D02*
X0011800Y0191500D01*
X0254300Y0191500D01*
X0254300Y0156500D01*
X0266800Y0144000D01*
X0266800Y0103505D01*
X0264205Y0106100D01*
X0262700Y0106100D01*
X0262700Y0101900D01*
X0261900Y0101900D01*
X0261900Y0106100D01*
X0260395Y0106100D01*
X0257700Y0103405D01*
X0257700Y0101900D01*
X0261900Y0101900D01*
X0261900Y0101100D01*
X0257700Y0101100D01*
X0257700Y0099595D01*
X0260395Y0096900D01*
X0261900Y0096900D01*
X0261900Y0101100D01*
X0262700Y0101100D01*
X0262700Y0096900D01*
X0264205Y0096900D01*
X0266800Y0099495D01*
X0266800Y0034000D01*
X0254300Y0021500D01*
X0011800Y0021500D01*
X0011800Y0021875D02*
X0254675Y0021875D01*
X0255873Y0023073D02*
X0011800Y0023073D01*
X0011800Y0024272D02*
X0257072Y0024272D01*
X0258270Y0025470D02*
X0011800Y0025470D01*
X0011800Y0026669D02*
X0259469Y0026669D01*
X0260667Y0027867D02*
X0011800Y0027867D01*
X0011800Y0029066D02*
X0261866Y0029066D01*
X0263064Y0030264D02*
X0011800Y0030264D01*
X0011800Y0031463D02*
X0264263Y0031463D01*
X0265461Y0032661D02*
X0011800Y0032661D01*
X0011800Y0033860D02*
X0266660Y0033860D01*
X0266800Y0035058D02*
X0011800Y0035058D01*
X0011800Y0036257D02*
X0266800Y0036257D01*
X0266800Y0037455D02*
X0011800Y0037455D01*
X0011800Y0038654D02*
X0266800Y0038654D01*
X0266800Y0039852D02*
X0011800Y0039852D01*
X0011800Y0041051D02*
X0266800Y0041051D01*
X0266800Y0042249D02*
X0011800Y0042249D01*
X0011800Y0043448D02*
X0266800Y0043448D01*
X0266800Y0044646D02*
X0011800Y0044646D01*
X0011800Y0045845D02*
X0266800Y0045845D01*
X0266800Y0047043D02*
X0011800Y0047043D01*
X0011800Y0048242D02*
X0266800Y0048242D01*
X0266800Y0049440D02*
X0253839Y0049440D01*
X0253602Y0049203D02*
X0254497Y0050098D01*
X0254981Y0051267D01*
X0254981Y0052533D01*
X0254497Y0053702D01*
X0253602Y0054597D01*
X0252433Y0055081D01*
X0251167Y0055081D01*
X0249998Y0054597D01*
X0249103Y0053702D01*
X0248619Y0052533D01*
X0248619Y0051267D01*
X0249103Y0050098D01*
X0249998Y0049203D01*
X0251167Y0048719D01*
X0252433Y0048719D01*
X0253602Y0049203D01*
X0254721Y0050639D02*
X0266800Y0050639D01*
X0266800Y0051837D02*
X0254981Y0051837D01*
X0254773Y0053036D02*
X0266800Y0053036D01*
X0266800Y0054234D02*
X0253964Y0054234D01*
X0249636Y0054234D02*
X0115615Y0054234D01*
X0115361Y0053621D02*
X0116000Y0055165D01*
X0116000Y0062835D01*
X0115361Y0064379D01*
X0114179Y0065561D01*
X0112635Y0066200D01*
X0110965Y0066200D01*
X0109421Y0065561D01*
X0108239Y0064379D01*
X0107600Y0062835D01*
X0107600Y0055165D01*
X0108239Y0053621D01*
X0109421Y0052439D01*
X0110965Y0051800D01*
X0112635Y0051800D01*
X0114179Y0052439D01*
X0115361Y0053621D01*
X0114776Y0053036D02*
X0248827Y0053036D01*
X0248619Y0051837D02*
X0112726Y0051837D01*
X0110874Y0051837D02*
X0102726Y0051837D01*
X0102635Y0051800D02*
X0104179Y0052439D01*
X0105361Y0053621D01*
X0106000Y0055165D01*
X0106000Y0062835D01*
X0105361Y0064379D01*
X0104179Y0065561D01*
X0102635Y0066200D01*
X0100965Y0066200D01*
X0099421Y0065561D01*
X0098239Y0064379D01*
X0097600Y0062835D01*
X0097600Y0055165D01*
X0098239Y0053621D01*
X0099421Y0052439D01*
X0100965Y0051800D01*
X0102635Y0051800D01*
X0100874Y0051837D02*
X0011800Y0051837D01*
X0011800Y0050639D02*
X0248879Y0050639D01*
X0249761Y0049440D02*
X0011800Y0049440D01*
X0011800Y0053036D02*
X0098824Y0053036D01*
X0097985Y0054234D02*
X0011800Y0054234D01*
X0011800Y0055433D02*
X0097600Y0055433D01*
X0097600Y0056632D02*
X0011800Y0056632D01*
X0011800Y0057830D02*
X0097600Y0057830D01*
X0097600Y0059029D02*
X0011800Y0059029D01*
X0011800Y0060227D02*
X0097600Y0060227D01*
X0097600Y0061426D02*
X0011800Y0061426D01*
X0011800Y0062624D02*
X0097600Y0062624D01*
X0098009Y0063823D02*
X0011800Y0063823D01*
X0011800Y0065021D02*
X0098881Y0065021D01*
X0104719Y0065021D02*
X0108881Y0065021D01*
X0108009Y0063823D02*
X0105591Y0063823D01*
X0106000Y0062624D02*
X0107600Y0062624D01*
X0107600Y0061426D02*
X0106000Y0061426D01*
X0106000Y0060227D02*
X0107600Y0060227D01*
X0107600Y0059029D02*
X0106000Y0059029D01*
X0106000Y0057830D02*
X0107600Y0057830D01*
X0107600Y0056632D02*
X0106000Y0056632D01*
X0106000Y0055433D02*
X0107600Y0055433D01*
X0107985Y0054234D02*
X0105615Y0054234D01*
X0104776Y0053036D02*
X0108824Y0053036D01*
X0116000Y0055433D02*
X0266800Y0055433D01*
X0266800Y0056632D02*
X0116000Y0056632D01*
X0116000Y0057830D02*
X0266800Y0057830D01*
X0266800Y0059029D02*
X0116000Y0059029D01*
X0116000Y0060227D02*
X0266800Y0060227D01*
X0266800Y0061426D02*
X0116000Y0061426D01*
X0116000Y0062624D02*
X0266800Y0062624D01*
X0266800Y0063823D02*
X0115591Y0063823D01*
X0114719Y0065021D02*
X0266800Y0065021D01*
X0266800Y0066220D02*
X0011800Y0066220D01*
X0011800Y0067418D02*
X0266800Y0067418D01*
X0266800Y0068617D02*
X0253815Y0068617D01*
X0253602Y0068403D02*
X0254497Y0069298D01*
X0254981Y0070467D01*
X0254981Y0071733D01*
X0254497Y0072902D01*
X0253602Y0073797D01*
X0252433Y0074281D01*
X0251167Y0074281D01*
X0249998Y0073797D01*
X0249103Y0072902D01*
X0248619Y0071733D01*
X0248619Y0070467D01*
X0249103Y0069298D01*
X0249998Y0068403D01*
X0251167Y0067919D01*
X0252433Y0067919D01*
X0253602Y0068403D01*
X0254711Y0069815D02*
X0266800Y0069815D01*
X0266800Y0071014D02*
X0254981Y0071014D01*
X0254783Y0072212D02*
X0266800Y0072212D01*
X0266800Y0073411D02*
X0253988Y0073411D01*
X0249612Y0073411D02*
X0192868Y0073411D01*
X0192868Y0073278D02*
X0192868Y0075269D01*
X0189684Y0075269D01*
X0189684Y0071888D01*
X0191479Y0071888D01*
X0191886Y0071997D01*
X0192251Y0072208D01*
X0192549Y0072506D01*
X0192759Y0072871D01*
X0192868Y0073278D01*
X0192255Y0072212D02*
X0248817Y0072212D01*
X0248619Y0071014D02*
X0011800Y0071014D01*
X0011800Y0072212D02*
X0186345Y0072212D01*
X0186349Y0072208D02*
X0186714Y0071997D01*
X0187121Y0071888D01*
X0188916Y0071888D01*
X0188916Y0075269D01*
X0189684Y0075269D01*
X0189684Y0076038D01*
X0192868Y0076038D01*
X0192868Y0078030D01*
X0192759Y0078436D01*
X0192549Y0078801D01*
X0192251Y0079099D01*
X0192018Y0079234D01*
X0192468Y0079684D01*
X0192468Y0085009D01*
X0191766Y0085712D01*
X0191300Y0085712D01*
X0191300Y0086819D01*
X0191778Y0086819D01*
X0192481Y0087522D01*
X0192481Y0092478D01*
X0191778Y0093181D01*
X0186822Y0093181D01*
X0186119Y0092478D01*
X0186119Y0087522D01*
X0186822Y0086819D01*
X0187300Y0086819D01*
X0187300Y0085712D01*
X0186834Y0085712D01*
X0186131Y0085009D01*
X0186131Y0079684D01*
X0186582Y0079234D01*
X0186349Y0079099D01*
X0186051Y0078801D01*
X0185841Y0078436D01*
X0185731Y0078030D01*
X0185731Y0076038D01*
X0188916Y0076038D01*
X0188916Y0075269D01*
X0185731Y0075269D01*
X0185731Y0073278D01*
X0185841Y0072871D01*
X0186051Y0072506D01*
X0186349Y0072208D01*
X0185731Y0073411D02*
X0011800Y0073411D01*
X0011800Y0074609D02*
X0185731Y0074609D01*
X0185731Y0077006D02*
X0011800Y0077006D01*
X0011800Y0075808D02*
X0188916Y0075808D01*
X0189684Y0075808D02*
X0266800Y0075808D01*
X0266800Y0077006D02*
X0192868Y0077006D01*
X0192822Y0078205D02*
X0266800Y0078205D01*
X0266800Y0079403D02*
X0192188Y0079403D01*
X0192468Y0080602D02*
X0266800Y0080602D01*
X0266800Y0081800D02*
X0192468Y0081800D01*
X0192468Y0082999D02*
X0266800Y0082999D01*
X0266800Y0084197D02*
X0192468Y0084197D01*
X0192082Y0085396D02*
X0266800Y0085396D01*
X0266800Y0086594D02*
X0191300Y0086594D01*
X0192481Y0087793D02*
X0266800Y0087793D01*
X0266800Y0088991D02*
X0192481Y0088991D01*
X0192481Y0090190D02*
X0266800Y0090190D01*
X0266800Y0091388D02*
X0192481Y0091388D01*
X0192372Y0092587D02*
X0266800Y0092587D01*
X0266800Y0093785D02*
X0129932Y0093785D01*
X0129847Y0093750D02*
X0130858Y0094169D01*
X0131631Y0094942D01*
X0132050Y0095953D01*
X0132050Y0097047D01*
X0131631Y0098058D01*
X0130858Y0098831D01*
X0129847Y0099250D01*
X0129096Y0099250D01*
X0121100Y0107246D01*
X0120046Y0108300D01*
X0112546Y0108300D01*
X0109550Y0111296D01*
X0109550Y0112047D01*
X0109131Y0113058D01*
X0108358Y0113831D01*
X0107347Y0114250D01*
X0106253Y0114250D01*
X0105242Y0113831D01*
X0104469Y0113058D01*
X0104050Y0112047D01*
X0104050Y0110953D01*
X0104469Y0109942D01*
X0105242Y0109169D01*
X0106253Y0108750D01*
X0107004Y0108750D01*
X0111054Y0104700D01*
X0118554Y0104700D01*
X0126550Y0096704D01*
X0126550Y0095953D01*
X0126969Y0094942D01*
X0127742Y0094169D01*
X0128753Y0093750D01*
X0129847Y0093750D01*
X0128668Y0093785D02*
X0118600Y0093785D01*
X0118600Y0093589D02*
X0118600Y0099411D01*
X0119131Y0099942D01*
X0119550Y0100953D01*
X0119550Y0102047D01*
X0119131Y0103058D01*
X0118358Y0103831D01*
X0117347Y0104250D01*
X0116253Y0104250D01*
X0115242Y0103831D01*
X0114469Y0103058D01*
X0114050Y0102047D01*
X0114050Y0100953D01*
X0114469Y0099942D01*
X0115000Y0099411D01*
X0115000Y0093589D01*
X0114469Y0093058D01*
X0114050Y0092047D01*
X0114050Y0090953D01*
X0114469Y0089942D01*
X0115242Y0089169D01*
X0116253Y0088750D01*
X0117347Y0088750D01*
X0118358Y0089169D01*
X0119131Y0089942D01*
X0119550Y0090953D01*
X0119550Y0092047D01*
X0119131Y0093058D01*
X0118600Y0093589D01*
X0119326Y0092587D02*
X0186228Y0092587D01*
X0186119Y0091388D02*
X0164981Y0091388D01*
X0164981Y0091478D02*
X0164278Y0092181D01*
X0159322Y0092181D01*
X0158619Y0091478D01*
X0158619Y0091000D01*
X0144981Y0091000D01*
X0144981Y0091478D01*
X0144278Y0092181D01*
X0139322Y0092181D01*
X0138619Y0091478D01*
X0138619Y0086522D01*
X0139322Y0085819D01*
X0144278Y0085819D01*
X0144981Y0086522D01*
X0144981Y0087000D01*
X0158619Y0087000D01*
X0158619Y0086522D01*
X0159322Y0085819D01*
X0164278Y0085819D01*
X0164981Y0086522D01*
X0164981Y0091478D01*
X0164981Y0090190D02*
X0186119Y0090190D01*
X0186119Y0088991D02*
X0164981Y0088991D01*
X0164981Y0087793D02*
X0186119Y0087793D01*
X0187300Y0086594D02*
X0164981Y0086594D01*
X0158619Y0086594D02*
X0144981Y0086594D01*
X0144981Y0091388D02*
X0158619Y0091388D01*
X0157347Y0098750D02*
X0158358Y0099169D01*
X0159131Y0099942D01*
X0159550Y0100953D01*
X0159550Y0102047D01*
X0159131Y0103058D01*
X0158358Y0103831D01*
X0157347Y0104250D01*
X0156253Y0104250D01*
X0155242Y0103831D01*
X0154711Y0103300D01*
X0148889Y0103300D01*
X0148358Y0103831D01*
X0147347Y0104250D01*
X0146253Y0104250D01*
X0145242Y0103831D01*
X0144469Y0103058D01*
X0144050Y0102047D01*
X0144050Y0100953D01*
X0144469Y0099942D01*
X0145242Y0099169D01*
X0146253Y0098750D01*
X0147347Y0098750D01*
X0148358Y0099169D01*
X0148889Y0099700D01*
X0154711Y0099700D01*
X0155242Y0099169D01*
X0156253Y0098750D01*
X0157347Y0098750D01*
X0158967Y0099778D02*
X0209916Y0099778D01*
X0209916Y0099769D02*
X0206731Y0099769D01*
X0206731Y0097778D01*
X0206841Y0097371D01*
X0207051Y0097006D01*
X0207349Y0096708D01*
X0207714Y0096497D01*
X0208121Y0096388D01*
X0209916Y0096388D01*
X0209916Y0099769D01*
X0210684Y0099769D01*
X0210684Y0096388D01*
X0212479Y0096388D01*
X0212886Y0096497D01*
X0213251Y0096708D01*
X0213549Y0097006D01*
X0213759Y0097371D01*
X0213868Y0097778D01*
X0213868Y0099769D01*
X0210684Y0099769D01*
X0210684Y0100538D01*
X0213868Y0100538D01*
X0213868Y0102530D01*
X0213759Y0102936D01*
X0213549Y0103301D01*
X0213251Y0103599D01*
X0213018Y0103734D01*
X0213468Y0104184D01*
X0213468Y0104846D01*
X0214647Y0104846D01*
X0214647Y0103790D01*
X0214655Y0103783D01*
X0214567Y0103695D01*
X0214356Y0103330D01*
X0214247Y0102923D01*
X0214247Y0100754D01*
X0218200Y0100754D01*
X0218200Y0099554D01*
X0214247Y0099554D01*
X0214247Y0097384D01*
X0214356Y0096977D01*
X0214567Y0096612D01*
X0214865Y0096314D01*
X0215230Y0096104D01*
X0215637Y0095994D01*
X0218200Y0095994D01*
X0218200Y0099553D01*
X0219400Y0099553D01*
X0219400Y0095994D01*
X0221963Y0095994D01*
X0222370Y0096104D01*
X0222735Y0096314D01*
X0223033Y0096612D01*
X0223244Y0096977D01*
X0223353Y0097384D01*
X0223353Y0099554D01*
X0219400Y0099554D01*
X0219400Y0100754D01*
X0223353Y0100754D01*
X0223353Y0102923D01*
X0223244Y0103330D01*
X0223033Y0103695D01*
X0222945Y0103783D01*
X0222953Y0103790D01*
X0222953Y0109903D01*
X0222250Y0110605D01*
X0215350Y0110605D01*
X0214647Y0109903D01*
X0214647Y0108846D01*
X0213468Y0108846D01*
X0213468Y0109509D01*
X0212968Y0110009D01*
X0213481Y0110522D01*
X0213481Y0115478D01*
X0212778Y0116181D01*
X0207822Y0116181D01*
X0207119Y0115478D01*
X0207119Y0110522D01*
X0207632Y0110009D01*
X0207131Y0109509D01*
X0207131Y0104184D01*
X0207582Y0103734D01*
X0207349Y0103599D01*
X0207051Y0103301D01*
X0206841Y0102936D01*
X0206731Y0102530D01*
X0206731Y0100538D01*
X0209916Y0100538D01*
X0209916Y0099769D01*
X0210684Y0099778D02*
X0218200Y0099778D01*
X0218200Y0098579D02*
X0219400Y0098579D01*
X0219400Y0097381D02*
X0218200Y0097381D01*
X0218200Y0096182D02*
X0219400Y0096182D01*
X0222507Y0096182D02*
X0266800Y0096182D01*
X0266800Y0094984D02*
X0131649Y0094984D01*
X0132050Y0096182D02*
X0215093Y0096182D01*
X0214248Y0097381D02*
X0213762Y0097381D01*
X0213868Y0098579D02*
X0214247Y0098579D01*
X0214247Y0100976D02*
X0213868Y0100976D01*
X0213868Y0102175D02*
X0214247Y0102175D01*
X0214381Y0103373D02*
X0213477Y0103373D01*
X0213468Y0104572D02*
X0214647Y0104572D01*
X0214647Y0109366D02*
X0213468Y0109366D01*
X0213481Y0110565D02*
X0215309Y0110565D01*
X0213481Y0111763D02*
X0240017Y0111763D01*
X0238819Y0110565D02*
X0222291Y0110565D01*
X0222953Y0109366D02*
X0237620Y0109366D01*
X0237500Y0109246D02*
X0237500Y0103920D01*
X0236770Y0103190D01*
X0236316Y0102094D01*
X0236316Y0100906D01*
X0236770Y0099810D01*
X0237610Y0098970D01*
X0238706Y0098516D01*
X0239894Y0098516D01*
X0240990Y0098970D01*
X0241830Y0099810D01*
X0242284Y0100906D01*
X0242284Y0102094D01*
X0241830Y0103190D01*
X0241100Y0103920D01*
X0241100Y0107754D01*
X0250646Y0117300D01*
X0254040Y0117300D01*
X0256500Y0119760D01*
X0256500Y0123240D01*
X0254040Y0125700D01*
X0250560Y0125700D01*
X0248100Y0123240D01*
X0248100Y0119846D01*
X0237500Y0109246D01*
X0237500Y0108168D02*
X0222953Y0108168D01*
X0222953Y0106969D02*
X0237500Y0106969D01*
X0237500Y0105770D02*
X0222953Y0105770D01*
X0222953Y0104572D02*
X0237500Y0104572D01*
X0236953Y0103373D02*
X0223219Y0103373D01*
X0223353Y0102175D02*
X0236349Y0102175D01*
X0236316Y0100976D02*
X0223353Y0100976D01*
X0223353Y0098579D02*
X0238553Y0098579D01*
X0240047Y0098579D02*
X0249281Y0098579D01*
X0248100Y0099760D02*
X0248100Y0103240D01*
X0250560Y0105700D01*
X0254040Y0105700D01*
X0256500Y0103240D01*
X0256500Y0099760D01*
X0254040Y0097300D01*
X0250560Y0097300D01*
X0248100Y0099760D01*
X0248100Y0099778D02*
X0241798Y0099778D01*
X0242284Y0100976D02*
X0248100Y0100976D01*
X0248100Y0102175D02*
X0242251Y0102175D01*
X0241647Y0103373D02*
X0248234Y0103373D01*
X0249432Y0104572D02*
X0241100Y0104572D01*
X0241100Y0105770D02*
X0260065Y0105770D01*
X0260560Y0107300D02*
X0264040Y0107300D01*
X0266500Y0109760D01*
X0266500Y0113240D01*
X0264040Y0115700D01*
X0260560Y0115700D01*
X0258100Y0113240D01*
X0258100Y0109760D01*
X0260560Y0107300D01*
X0259693Y0108168D02*
X0254907Y0108168D01*
X0254040Y0107300D02*
X0256500Y0109760D01*
X0256500Y0113240D01*
X0254040Y0115700D01*
X0250560Y0115700D01*
X0248100Y0113240D01*
X0248100Y0109760D01*
X0250560Y0107300D01*
X0254040Y0107300D01*
X0256106Y0109366D02*
X0258494Y0109366D01*
X0258100Y0110565D02*
X0256500Y0110565D01*
X0256500Y0111763D02*
X0258100Y0111763D01*
X0258100Y0112962D02*
X0256500Y0112962D01*
X0255580Y0114160D02*
X0259020Y0114160D01*
X0260219Y0115359D02*
X0254381Y0115359D01*
X0254495Y0117756D02*
X0260105Y0117756D01*
X0260560Y0117300D02*
X0264040Y0117300D01*
X0266500Y0119760D01*
X0266500Y0123240D01*
X0264040Y0125700D01*
X0260560Y0125700D01*
X0258100Y0123240D01*
X0258100Y0119760D01*
X0260560Y0117300D01*
X0258906Y0118954D02*
X0255694Y0118954D01*
X0256500Y0120153D02*
X0258100Y0120153D01*
X0258100Y0121351D02*
X0256500Y0121351D01*
X0256500Y0122550D02*
X0258100Y0122550D01*
X0258608Y0123748D02*
X0255992Y0123748D01*
X0254793Y0124947D02*
X0259807Y0124947D01*
X0264793Y0124947D02*
X0266800Y0124947D01*
X0266800Y0126145D02*
X0174481Y0126145D01*
X0174481Y0126478D02*
X0173778Y0127181D01*
X0168822Y0127181D01*
X0168119Y0126478D01*
X0168119Y0125800D01*
X0163554Y0125800D01*
X0162500Y0124746D01*
X0162500Y0109681D01*
X0161822Y0109681D01*
X0161119Y0108978D01*
X0161119Y0104022D01*
X0161822Y0103319D01*
X0166778Y0103319D01*
X0167481Y0104022D01*
X0167481Y0108978D01*
X0166778Y0109681D01*
X0166100Y0109681D01*
X0166100Y0122200D01*
X0168119Y0122200D01*
X0168119Y0121522D01*
X0168822Y0120819D01*
X0173778Y0120819D01*
X0174481Y0121522D01*
X0174481Y0126478D01*
X0174481Y0124947D02*
X0249807Y0124947D01*
X0248608Y0123748D02*
X0174481Y0123748D01*
X0174481Y0122550D02*
X0248100Y0122550D01*
X0248100Y0121351D02*
X0174310Y0121351D01*
X0171300Y0124000D02*
X0164300Y0124000D01*
X0164300Y0106500D01*
X0167481Y0106969D02*
X0207131Y0106969D01*
X0207131Y0105770D02*
X0167481Y0105770D01*
X0167481Y0104572D02*
X0207131Y0104572D01*
X0207123Y0103373D02*
X0166833Y0103373D01*
X0161767Y0103373D02*
X0158816Y0103373D01*
X0159497Y0102175D02*
X0206731Y0102175D01*
X0206731Y0100976D02*
X0159550Y0100976D01*
X0156800Y0101500D02*
X0146800Y0101500D01*
X0148816Y0103373D02*
X0154784Y0103373D01*
X0161119Y0104572D02*
X0123774Y0104572D01*
X0124972Y0103373D02*
X0144784Y0103373D01*
X0144103Y0102175D02*
X0126171Y0102175D01*
X0127369Y0100976D02*
X0144050Y0100976D01*
X0144633Y0099778D02*
X0128568Y0099778D01*
X0131110Y0098579D02*
X0206731Y0098579D01*
X0206838Y0097381D02*
X0131912Y0097381D01*
X0129300Y0096500D02*
X0119300Y0106500D01*
X0111800Y0106500D01*
X0106800Y0111500D01*
X0104211Y0110565D02*
X0011800Y0110565D01*
X0011800Y0111763D02*
X0104050Y0111763D01*
X0104429Y0112962D02*
X0011800Y0112962D01*
X0011800Y0114160D02*
X0106036Y0114160D01*
X0107564Y0114160D02*
X0157251Y0114160D01*
X0156969Y0114442D02*
X0157742Y0113669D01*
X0158753Y0113250D01*
X0159847Y0113250D01*
X0160858Y0113669D01*
X0161631Y0114442D01*
X0162050Y0115453D01*
X0162050Y0116547D01*
X0161631Y0117558D01*
X0161100Y0118089D01*
X0161100Y0121911D01*
X0161631Y0122442D01*
X0162050Y0123453D01*
X0162050Y0124547D01*
X0161631Y0125558D01*
X0160858Y0126331D01*
X0159847Y0126750D01*
X0158753Y0126750D01*
X0157742Y0126331D01*
X0156969Y0125558D01*
X0156550Y0124547D01*
X0156550Y0123453D01*
X0156969Y0122442D01*
X0157500Y0121911D01*
X0157500Y0118089D01*
X0156969Y0117558D01*
X0156550Y0116547D01*
X0156550Y0115453D01*
X0156969Y0114442D01*
X0156589Y0115359D02*
X0011800Y0115359D01*
X0011800Y0116557D02*
X0156554Y0116557D01*
X0157167Y0117756D02*
X0011800Y0117756D01*
X0011800Y0118954D02*
X0157500Y0118954D01*
X0157500Y0120153D02*
X0011800Y0120153D01*
X0011800Y0121351D02*
X0157500Y0121351D01*
X0156924Y0122550D02*
X0011800Y0122550D01*
X0011800Y0123748D02*
X0156550Y0123748D01*
X0156716Y0124947D02*
X0011800Y0124947D01*
X0011800Y0126145D02*
X0157556Y0126145D01*
X0159300Y0124000D02*
X0159300Y0116000D01*
X0161349Y0114160D02*
X0162500Y0114160D01*
X0162500Y0112962D02*
X0109171Y0112962D01*
X0109550Y0111763D02*
X0162500Y0111763D01*
X0162500Y0110565D02*
X0110281Y0110565D01*
X0111480Y0109366D02*
X0161507Y0109366D01*
X0161119Y0108168D02*
X0120178Y0108168D01*
X0121377Y0106969D02*
X0161119Y0106969D01*
X0161119Y0105770D02*
X0122575Y0105770D01*
X0119881Y0103373D02*
X0118816Y0103373D01*
X0118682Y0104572D02*
X0011800Y0104572D01*
X0011800Y0105770D02*
X0109984Y0105770D01*
X0108785Y0106969D02*
X0011800Y0106969D01*
X0011800Y0108168D02*
X0107587Y0108168D01*
X0105045Y0109366D02*
X0011800Y0109366D01*
X0011800Y0103373D02*
X0114784Y0103373D01*
X0114103Y0102175D02*
X0011800Y0102175D01*
X0011800Y0100976D02*
X0114050Y0100976D01*
X0114633Y0099778D02*
X0011800Y0099778D01*
X0011800Y0098579D02*
X0115000Y0098579D01*
X0115000Y0097381D02*
X0011800Y0097381D01*
X0011800Y0096182D02*
X0115000Y0096182D01*
X0115000Y0094984D02*
X0011800Y0094984D01*
X0011800Y0093785D02*
X0115000Y0093785D01*
X0114274Y0092587D02*
X0011800Y0092587D01*
X0011800Y0091388D02*
X0114050Y0091388D01*
X0114366Y0090190D02*
X0011800Y0090190D01*
X0011800Y0088991D02*
X0115670Y0088991D01*
X0117930Y0088991D02*
X0138619Y0088991D01*
X0138619Y0087793D02*
X0011800Y0087793D01*
X0011800Y0086594D02*
X0138619Y0086594D01*
X0138619Y0090190D02*
X0119234Y0090190D01*
X0119550Y0091388D02*
X0138619Y0091388D01*
X0126951Y0094984D02*
X0118600Y0094984D01*
X0118600Y0096182D02*
X0126550Y0096182D01*
X0125873Y0097381D02*
X0118600Y0097381D01*
X0118600Y0098579D02*
X0124675Y0098579D01*
X0123476Y0099778D02*
X0118967Y0099778D01*
X0119550Y0100976D02*
X0122278Y0100976D01*
X0121079Y0102175D02*
X0119497Y0102175D01*
X0116800Y0101500D02*
X0116800Y0091500D01*
X0161100Y0118954D02*
X0162500Y0118954D01*
X0162500Y0117756D02*
X0161433Y0117756D01*
X0162046Y0116557D02*
X0162500Y0116557D01*
X0162500Y0115359D02*
X0162011Y0115359D01*
X0166100Y0115359D02*
X0207119Y0115359D01*
X0207119Y0114160D02*
X0166100Y0114160D01*
X0166100Y0112962D02*
X0207119Y0112962D01*
X0207119Y0111763D02*
X0166100Y0111763D01*
X0166100Y0110565D02*
X0207119Y0110565D01*
X0207131Y0109366D02*
X0167093Y0109366D01*
X0167481Y0108168D02*
X0207131Y0108168D01*
X0213481Y0112962D02*
X0241216Y0112962D01*
X0242414Y0114160D02*
X0213481Y0114160D01*
X0213481Y0115359D02*
X0243613Y0115359D01*
X0244812Y0116557D02*
X0166100Y0116557D01*
X0166100Y0117756D02*
X0246010Y0117756D01*
X0247209Y0118954D02*
X0166100Y0118954D01*
X0166100Y0120153D02*
X0248100Y0120153D01*
X0249903Y0116557D02*
X0266800Y0116557D01*
X0266800Y0115359D02*
X0264381Y0115359D01*
X0265580Y0114160D02*
X0266800Y0114160D01*
X0266800Y0112962D02*
X0266500Y0112962D01*
X0266500Y0111763D02*
X0266800Y0111763D01*
X0266800Y0110565D02*
X0266500Y0110565D01*
X0266800Y0109366D02*
X0266106Y0109366D01*
X0266800Y0108168D02*
X0264907Y0108168D01*
X0266800Y0106969D02*
X0241100Y0106969D01*
X0241513Y0108168D02*
X0249693Y0108168D01*
X0248494Y0109366D02*
X0242712Y0109366D01*
X0243910Y0110565D02*
X0248100Y0110565D01*
X0248100Y0111763D02*
X0245109Y0111763D01*
X0246307Y0112962D02*
X0248100Y0112962D01*
X0247506Y0114160D02*
X0249020Y0114160D01*
X0248704Y0115359D02*
X0250219Y0115359D01*
X0252300Y0121500D02*
X0239300Y0108500D01*
X0239300Y0101500D01*
X0236802Y0099778D02*
X0219400Y0099778D01*
X0223352Y0097381D02*
X0250479Y0097381D01*
X0254121Y0097381D02*
X0259914Y0097381D01*
X0258715Y0098579D02*
X0255319Y0098579D01*
X0256500Y0099778D02*
X0257700Y0099778D01*
X0257700Y0100976D02*
X0256500Y0100976D01*
X0256500Y0102175D02*
X0257700Y0102175D01*
X0257700Y0103373D02*
X0256366Y0103373D01*
X0255168Y0104572D02*
X0258867Y0104572D01*
X0261900Y0104572D02*
X0262700Y0104572D01*
X0262700Y0105770D02*
X0261900Y0105770D01*
X0261900Y0103373D02*
X0262700Y0103373D01*
X0262700Y0102175D02*
X0261900Y0102175D01*
X0261900Y0100976D02*
X0262700Y0100976D01*
X0262700Y0099778D02*
X0261900Y0099778D01*
X0261900Y0098579D02*
X0262700Y0098579D01*
X0262700Y0097381D02*
X0261900Y0097381D01*
X0264686Y0097381D02*
X0266800Y0097381D01*
X0266800Y0098579D02*
X0265885Y0098579D01*
X0265733Y0104572D02*
X0266800Y0104572D01*
X0266800Y0105770D02*
X0264535Y0105770D01*
X0264495Y0117756D02*
X0266800Y0117756D01*
X0266800Y0118954D02*
X0265694Y0118954D01*
X0266500Y0120153D02*
X0266800Y0120153D01*
X0266800Y0121351D02*
X0266500Y0121351D01*
X0266500Y0122550D02*
X0266800Y0122550D01*
X0266800Y0123748D02*
X0265992Y0123748D01*
X0266800Y0127344D02*
X0011800Y0127344D01*
X0011800Y0128542D02*
X0266800Y0128542D01*
X0266800Y0129741D02*
X0011800Y0129741D01*
X0011800Y0130939D02*
X0266800Y0130939D01*
X0266800Y0132138D02*
X0011800Y0132138D01*
X0011800Y0133336D02*
X0266800Y0133336D01*
X0266800Y0134535D02*
X0011800Y0134535D01*
X0011800Y0135733D02*
X0266800Y0135733D01*
X0266800Y0136932D02*
X0011800Y0136932D01*
X0011800Y0138130D02*
X0266800Y0138130D01*
X0266800Y0139329D02*
X0234128Y0139329D01*
X0234497Y0139698D02*
X0234981Y0140867D01*
X0234981Y0142133D01*
X0234944Y0142223D01*
X0236942Y0145831D01*
X0238616Y0145831D01*
X0239066Y0146282D01*
X0239201Y0146049D01*
X0239499Y0145751D01*
X0239864Y0145541D01*
X0240270Y0145431D01*
X0242262Y0145431D01*
X0242262Y0148616D01*
X0243031Y0148616D01*
X0243031Y0149384D01*
X0246412Y0149384D01*
X0246412Y0151179D01*
X0246303Y0151586D01*
X0246092Y0151951D01*
X0245794Y0152249D01*
X0245429Y0152459D01*
X0245022Y0152568D01*
X0243031Y0152568D01*
X0243031Y0149384D01*
X0242262Y0149384D01*
X0242262Y0152568D01*
X0240270Y0152568D01*
X0239864Y0152459D01*
X0239499Y0152249D01*
X0239201Y0151951D01*
X0239154Y0151869D01*
X0239154Y0166131D01*
X0239201Y0166049D01*
X0239499Y0165751D01*
X0239864Y0165541D01*
X0240270Y0165431D01*
X0242262Y0165431D01*
X0242262Y0168616D01*
X0243031Y0168616D01*
X0243031Y0169384D01*
X0246412Y0169384D01*
X0246412Y0171179D01*
X0246303Y0171586D01*
X0246092Y0171951D01*
X0245794Y0172249D01*
X0245429Y0172459D01*
X0245022Y0172568D01*
X0243031Y0172568D01*
X0243031Y0169384D01*
X0242262Y0169384D01*
X0242262Y0172568D01*
X0240270Y0172568D01*
X0239864Y0172459D01*
X0239499Y0172249D01*
X0239201Y0171951D01*
X0239066Y0171718D01*
X0238616Y0172168D01*
X0236942Y0172168D01*
X0235265Y0175197D01*
X0235500Y0175764D01*
X0235500Y0177236D01*
X0234937Y0178596D01*
X0233896Y0179637D01*
X0232536Y0180200D01*
X0211219Y0180200D01*
X0210126Y0180653D01*
X0208474Y0180653D01*
X0206948Y0180021D01*
X0205779Y0178852D01*
X0205147Y0177326D01*
X0205147Y0175674D01*
X0205779Y0174148D01*
X0206948Y0172979D01*
X0208474Y0172347D01*
X0210126Y0172347D01*
X0211219Y0172800D01*
X0231106Y0172800D01*
X0232588Y0170123D01*
X0232588Y0166534D01*
X0232754Y0166369D01*
X0232754Y0151631D01*
X0232588Y0151466D01*
X0232588Y0147877D01*
X0230714Y0144494D01*
X0229998Y0144197D01*
X0229103Y0143302D01*
X0228619Y0142133D01*
X0228619Y0140867D01*
X0229103Y0139698D01*
X0229998Y0138803D01*
X0231167Y0138319D01*
X0232433Y0138319D01*
X0233602Y0138803D01*
X0234497Y0139698D01*
X0234840Y0140527D02*
X0266800Y0140527D01*
X0266800Y0141726D02*
X0234981Y0141726D01*
X0235332Y0142924D02*
X0266800Y0142924D01*
X0266677Y0144123D02*
X0235996Y0144123D01*
X0236660Y0145321D02*
X0265479Y0145321D01*
X0264280Y0146520D02*
X0246331Y0146520D01*
X0246303Y0146414D02*
X0246412Y0146821D01*
X0246412Y0148616D01*
X0243031Y0148616D01*
X0243031Y0145431D01*
X0245022Y0145431D01*
X0245429Y0145541D01*
X0245794Y0145751D01*
X0246092Y0146049D01*
X0246303Y0146414D01*
X0246412Y0147718D02*
X0263082Y0147718D01*
X0261883Y0148917D02*
X0243031Y0148917D01*
X0243031Y0150115D02*
X0242262Y0150115D01*
X0242262Y0151314D02*
X0243031Y0151314D01*
X0243031Y0152512D02*
X0242262Y0152512D01*
X0240061Y0152512D02*
X0239154Y0152512D01*
X0239154Y0153711D02*
X0257089Y0153711D01*
X0255891Y0154909D02*
X0239154Y0154909D01*
X0239154Y0156108D02*
X0254692Y0156108D01*
X0254300Y0157306D02*
X0239154Y0157306D01*
X0239154Y0158505D02*
X0254300Y0158505D01*
X0254300Y0159703D02*
X0239154Y0159703D01*
X0239154Y0160902D02*
X0254300Y0160902D01*
X0254300Y0162101D02*
X0239154Y0162101D01*
X0239154Y0163299D02*
X0254300Y0163299D01*
X0254300Y0164498D02*
X0239154Y0164498D01*
X0239154Y0165696D02*
X0239594Y0165696D01*
X0242262Y0165696D02*
X0243031Y0165696D01*
X0243031Y0165431D02*
X0245022Y0165431D01*
X0245429Y0165541D01*
X0245794Y0165751D01*
X0246092Y0166049D01*
X0246303Y0166414D01*
X0246412Y0166821D01*
X0246412Y0168616D01*
X0243031Y0168616D01*
X0243031Y0165431D01*
X0243031Y0166895D02*
X0242262Y0166895D01*
X0242262Y0168093D02*
X0243031Y0168093D01*
X0243031Y0169292D02*
X0254300Y0169292D01*
X0254300Y0170490D02*
X0246412Y0170490D01*
X0246244Y0171689D02*
X0254300Y0171689D01*
X0254300Y0172887D02*
X0236544Y0172887D01*
X0235881Y0174086D02*
X0254300Y0174086D01*
X0254300Y0175284D02*
X0235301Y0175284D01*
X0235500Y0176483D02*
X0254300Y0176483D01*
X0254300Y0177681D02*
X0235316Y0177681D01*
X0234653Y0178880D02*
X0254300Y0178880D01*
X0254300Y0180078D02*
X0241318Y0180078D01*
X0241040Y0179800D02*
X0243500Y0182260D01*
X0243500Y0185740D01*
X0241040Y0188200D01*
X0237560Y0188200D01*
X0235100Y0185740D01*
X0235100Y0182260D01*
X0237560Y0179800D01*
X0241040Y0179800D01*
X0242516Y0181277D02*
X0254300Y0181277D01*
X0254300Y0182475D02*
X0243500Y0182475D01*
X0243500Y0183674D02*
X0254300Y0183674D01*
X0254300Y0184872D02*
X0243500Y0184872D01*
X0243169Y0186071D02*
X0254300Y0186071D01*
X0254300Y0187269D02*
X0241970Y0187269D01*
X0236630Y0187269D02*
X0229925Y0187269D01*
X0229981Y0187133D02*
X0229497Y0188302D01*
X0228602Y0189197D01*
X0227433Y0189681D01*
X0226167Y0189681D01*
X0224998Y0189197D01*
X0224103Y0188302D01*
X0224102Y0188300D01*
X0211998Y0188300D01*
X0211997Y0188302D01*
X0211102Y0189197D01*
X0209933Y0189681D01*
X0208667Y0189681D01*
X0207498Y0189197D01*
X0206603Y0188302D01*
X0206119Y0187133D01*
X0206119Y0185867D01*
X0206603Y0184698D01*
X0207498Y0183803D01*
X0208667Y0183319D01*
X0209933Y0183319D01*
X0211102Y0183803D01*
X0211997Y0184698D01*
X0211998Y0184700D01*
X0224102Y0184700D01*
X0224103Y0184698D01*
X0224998Y0183803D01*
X0226167Y0183319D01*
X0227433Y0183319D01*
X0228602Y0183803D01*
X0229497Y0184698D01*
X0229981Y0185867D01*
X0229981Y0187133D01*
X0229981Y0186071D02*
X0235431Y0186071D01*
X0235100Y0184872D02*
X0229569Y0184872D01*
X0228289Y0183674D02*
X0235100Y0183674D01*
X0235100Y0182475D02*
X0011800Y0182475D01*
X0011800Y0181277D02*
X0236084Y0181277D01*
X0237282Y0180078D02*
X0232830Y0180078D01*
X0229331Y0188468D02*
X0254300Y0188468D01*
X0254300Y0189666D02*
X0227469Y0189666D01*
X0226131Y0189666D02*
X0209969Y0189666D01*
X0208631Y0189666D02*
X0011800Y0189666D01*
X0011800Y0188468D02*
X0206769Y0188468D01*
X0206175Y0187269D02*
X0011800Y0187269D01*
X0011800Y0186071D02*
X0206119Y0186071D01*
X0206531Y0184872D02*
X0011800Y0184872D01*
X0011800Y0183674D02*
X0207811Y0183674D01*
X0209300Y0186500D02*
X0226800Y0186500D01*
X0225311Y0183674D02*
X0210789Y0183674D01*
X0211831Y0188468D02*
X0224269Y0188468D01*
X0231721Y0171689D02*
X0077551Y0171689D01*
X0078500Y0170740D02*
X0076040Y0173200D01*
X0072560Y0173200D01*
X0070100Y0170740D01*
X0070100Y0167260D01*
X0072560Y0164800D01*
X0076040Y0164800D01*
X0078500Y0167260D01*
X0078500Y0170740D01*
X0078500Y0170490D02*
X0232385Y0170490D01*
X0232588Y0169292D02*
X0078500Y0169292D01*
X0078500Y0168093D02*
X0232588Y0168093D01*
X0232588Y0166895D02*
X0078134Y0166895D01*
X0076936Y0165696D02*
X0232754Y0165696D01*
X0232754Y0164498D02*
X0011800Y0164498D01*
X0011800Y0165696D02*
X0061664Y0165696D01*
X0062560Y0164800D02*
X0066040Y0164800D01*
X0068500Y0167260D01*
X0068500Y0170740D01*
X0066040Y0173200D01*
X0062560Y0173200D01*
X0060100Y0170740D01*
X0060100Y0167260D01*
X0062560Y0164800D01*
X0062395Y0163600D02*
X0059700Y0160905D01*
X0059700Y0159400D01*
X0063900Y0159400D01*
X0063900Y0163600D01*
X0062395Y0163600D01*
X0062094Y0163299D02*
X0011800Y0163299D01*
X0011800Y0162101D02*
X0060895Y0162101D01*
X0059700Y0160902D02*
X0011800Y0160902D01*
X0011800Y0159703D02*
X0059700Y0159703D01*
X0059700Y0158600D02*
X0059700Y0157095D01*
X0062395Y0154400D01*
X0063900Y0154400D01*
X0063900Y0158600D01*
X0059700Y0158600D01*
X0059700Y0158505D02*
X0011800Y0158505D01*
X0011800Y0157306D02*
X0059700Y0157306D01*
X0060687Y0156108D02*
X0011800Y0156108D01*
X0011800Y0154909D02*
X0061885Y0154909D01*
X0062560Y0153200D02*
X0060100Y0150740D01*
X0060100Y0147260D01*
X0062560Y0144800D01*
X0066040Y0144800D01*
X0068500Y0147260D01*
X0068500Y0150740D01*
X0066040Y0153200D01*
X0062560Y0153200D01*
X0061873Y0152512D02*
X0011800Y0152512D01*
X0011800Y0151314D02*
X0060674Y0151314D01*
X0060100Y0150115D02*
X0011800Y0150115D01*
X0011800Y0148917D02*
X0060100Y0148917D01*
X0060100Y0147718D02*
X0011800Y0147718D01*
X0011800Y0146520D02*
X0060840Y0146520D01*
X0062039Y0145321D02*
X0011800Y0145321D01*
X0011800Y0144123D02*
X0229924Y0144123D01*
X0228947Y0142924D02*
X0011800Y0142924D01*
X0011800Y0141726D02*
X0228619Y0141726D01*
X0228760Y0140527D02*
X0011800Y0140527D01*
X0011800Y0139329D02*
X0229472Y0139329D01*
X0231173Y0145321D02*
X0076561Y0145321D01*
X0076040Y0144800D02*
X0078500Y0147260D01*
X0078500Y0150740D01*
X0076040Y0153200D01*
X0072560Y0153200D01*
X0070100Y0150740D01*
X0070100Y0147260D01*
X0072560Y0144800D01*
X0076040Y0144800D01*
X0077760Y0146520D02*
X0231837Y0146520D01*
X0232500Y0147718D02*
X0078500Y0147718D01*
X0078500Y0148917D02*
X0232588Y0148917D01*
X0232588Y0150115D02*
X0078500Y0150115D01*
X0077926Y0151314D02*
X0232588Y0151314D01*
X0232754Y0152512D02*
X0076727Y0152512D01*
X0076040Y0154800D02*
X0078500Y0157260D01*
X0078500Y0160740D01*
X0076040Y0163200D01*
X0072560Y0163200D01*
X0070100Y0160740D01*
X0070100Y0157260D01*
X0072560Y0154800D01*
X0076040Y0154800D01*
X0076149Y0154909D02*
X0232754Y0154909D01*
X0232754Y0153711D02*
X0011800Y0153711D01*
X0011800Y0166895D02*
X0060466Y0166895D01*
X0060100Y0168093D02*
X0011800Y0168093D01*
X0011800Y0169292D02*
X0060100Y0169292D01*
X0060100Y0170490D02*
X0011800Y0170490D01*
X0011800Y0171689D02*
X0061049Y0171689D01*
X0062247Y0172887D02*
X0011800Y0172887D01*
X0011800Y0174086D02*
X0205841Y0174086D01*
X0205309Y0175284D02*
X0011800Y0175284D01*
X0011800Y0176483D02*
X0205147Y0176483D01*
X0205294Y0177681D02*
X0011800Y0177681D01*
X0011800Y0178880D02*
X0205807Y0178880D01*
X0207087Y0180078D02*
X0011800Y0180078D01*
X0011800Y0190865D02*
X0254300Y0190865D01*
X0243031Y0171689D02*
X0242262Y0171689D01*
X0242262Y0170490D02*
X0243031Y0170490D01*
X0246412Y0168093D02*
X0254300Y0168093D01*
X0254300Y0166895D02*
X0246412Y0166895D01*
X0245699Y0165696D02*
X0254300Y0165696D01*
X0258288Y0152512D02*
X0245232Y0152512D01*
X0246376Y0151314D02*
X0259486Y0151314D01*
X0260685Y0150115D02*
X0246412Y0150115D01*
X0243031Y0147718D02*
X0242262Y0147718D01*
X0242262Y0146520D02*
X0243031Y0146520D01*
X0232754Y0156108D02*
X0077348Y0156108D01*
X0078500Y0157306D02*
X0232754Y0157306D01*
X0232754Y0158505D02*
X0078500Y0158505D01*
X0078500Y0159703D02*
X0232754Y0159703D01*
X0232754Y0160902D02*
X0078338Y0160902D01*
X0077139Y0162101D02*
X0232754Y0162101D01*
X0232754Y0163299D02*
X0066506Y0163299D01*
X0066205Y0163600D02*
X0064700Y0163600D01*
X0064700Y0159400D01*
X0063900Y0159400D01*
X0063900Y0158600D01*
X0064700Y0158600D01*
X0064700Y0159400D01*
X0068900Y0159400D01*
X0068900Y0160905D01*
X0066205Y0163600D01*
X0064700Y0163299D02*
X0063900Y0163299D01*
X0063900Y0162101D02*
X0064700Y0162101D01*
X0064700Y0160902D02*
X0063900Y0160902D01*
X0063900Y0159703D02*
X0064700Y0159703D01*
X0064700Y0158600D02*
X0068900Y0158600D01*
X0068900Y0157095D01*
X0066205Y0154400D01*
X0064700Y0154400D01*
X0064700Y0158600D01*
X0064700Y0158505D02*
X0063900Y0158505D01*
X0063900Y0157306D02*
X0064700Y0157306D01*
X0064700Y0156108D02*
X0063900Y0156108D01*
X0063900Y0154909D02*
X0064700Y0154909D01*
X0066715Y0154909D02*
X0072451Y0154909D01*
X0071252Y0156108D02*
X0067913Y0156108D01*
X0068900Y0157306D02*
X0070100Y0157306D01*
X0070100Y0158505D02*
X0068900Y0158505D01*
X0068900Y0159703D02*
X0070100Y0159703D01*
X0070262Y0160902D02*
X0068900Y0160902D01*
X0067705Y0162101D02*
X0071461Y0162101D01*
X0071664Y0165696D02*
X0066936Y0165696D01*
X0068134Y0166895D02*
X0070466Y0166895D01*
X0070100Y0168093D02*
X0068500Y0168093D01*
X0068500Y0169292D02*
X0070100Y0169292D01*
X0070100Y0170490D02*
X0068500Y0170490D01*
X0067551Y0171689D02*
X0071049Y0171689D01*
X0072247Y0172887D02*
X0066353Y0172887D01*
X0076353Y0172887D02*
X0207171Y0172887D01*
X0168119Y0126145D02*
X0161044Y0126145D01*
X0161884Y0124947D02*
X0162701Y0124947D01*
X0162500Y0123748D02*
X0162050Y0123748D01*
X0161676Y0122550D02*
X0162500Y0122550D01*
X0162500Y0121351D02*
X0161100Y0121351D01*
X0161100Y0120153D02*
X0162500Y0120153D01*
X0166100Y0121351D02*
X0168290Y0121351D01*
X0186518Y0085396D02*
X0011800Y0085396D01*
X0011800Y0084197D02*
X0186131Y0084197D01*
X0186131Y0082999D02*
X0011800Y0082999D01*
X0011800Y0081800D02*
X0186131Y0081800D01*
X0186131Y0080602D02*
X0011800Y0080602D01*
X0011800Y0079403D02*
X0186412Y0079403D01*
X0185778Y0078205D02*
X0011800Y0078205D01*
X0011800Y0069815D02*
X0248889Y0069815D01*
X0249785Y0068617D02*
X0011800Y0068617D01*
X0066561Y0145321D02*
X0072039Y0145321D01*
X0070840Y0146520D02*
X0067760Y0146520D01*
X0068500Y0147718D02*
X0070100Y0147718D01*
X0070100Y0148917D02*
X0068500Y0148917D01*
X0068500Y0150115D02*
X0070100Y0150115D01*
X0070674Y0151314D02*
X0067926Y0151314D01*
X0066727Y0152512D02*
X0071873Y0152512D01*
X0188916Y0074609D02*
X0189684Y0074609D01*
X0189684Y0073411D02*
X0188916Y0073411D01*
X0188916Y0072212D02*
X0189684Y0072212D01*
X0192868Y0074609D02*
X0266800Y0074609D01*
X0210684Y0097381D02*
X0209916Y0097381D01*
X0209916Y0098579D02*
X0210684Y0098579D01*
D18*
X0210300Y0113000D03*
X0189300Y0090000D03*
X0164300Y0106500D03*
X0161800Y0089000D03*
X0141800Y0089000D03*
X0171300Y0124000D03*
X0237800Y0087500D03*
X0246800Y0131500D03*
D19*
X0239300Y0101500D03*
D20*
X0159300Y0116000D03*
X0159300Y0124000D03*
X0156800Y0101500D03*
X0146800Y0101500D03*
X0129300Y0096500D03*
X0116800Y0091500D03*
X0116800Y0101500D03*
X0106800Y0111500D03*
D21*
X0141800Y0089000D02*
X0161800Y0089000D01*
X0188300Y0089000D02*
X0189300Y0090000D01*
X0189300Y0082346D01*
X0210300Y0106846D02*
X0210300Y0113000D01*
X0210300Y0106846D02*
X0218800Y0106846D01*
D22*
X0231800Y0141500D02*
X0235954Y0149000D01*
X0235954Y0169000D02*
X0231800Y0176500D01*
D23*
X0235954Y0169000D02*
X0235954Y0149000D01*
D24*
X0209300Y0176500D03*
D25*
X0231800Y0176500D01*
D26*
X0236800Y0269000D03*
X0036800Y0269000D03*
D27*
X0131800Y0224000D03*
X0141800Y0224000D03*
M02*
