G75*
%MOIN*%
%OFA0B0*%
%FSLAX25Y25*%
%IPPOS*%
%LPD*%
%AMOC8*
5,1,8,0,0,1.08239X$1,22.5*
%
%ADD10R,0.60000X0.65000*%
%ADD11R,0.65000X0.65000*%
%ADD12R,0.02765X0.05324*%
%ADD13R,0.09261X0.02962*%
%ADD14R,0.02962X0.09261*%
%ADD15C,0.06600*%
%ADD16R,0.04537X0.04931*%
%ADD17OC8,0.06600*%
%ADD18R,0.06506X0.05718*%
%ADD19R,0.05718X0.06506*%
%ADD20R,0.04931X0.04537*%
%ADD21R,0.08700X0.02300*%
%ADD22C,0.04562*%
%ADD23R,0.21100X0.35000*%
%ADD24R,0.03700X0.03700*%
%ADD25R,0.04562X0.04562*%
%ADD26C,0.04169*%
%ADD27C,0.03700*%
%ADD28C,0.06506*%
%ADD29C,0.17135*%
%ADD30C,0.07096*%
D10*
X0036800Y0269000D03*
D11*
X0236800Y0269000D03*
D12*
X0110540Y0101618D03*
X0103060Y0101618D03*
X0103060Y0091382D03*
X0106800Y0091382D03*
X0110540Y0091382D03*
D13*
X0171564Y0129000D03*
X0171564Y0134000D03*
X0171564Y0139000D03*
X0171564Y0144000D03*
X0192036Y0144000D03*
X0192036Y0139000D03*
X0192036Y0134000D03*
X0192036Y0129000D03*
D14*
X0231800Y0148764D03*
X0236800Y0148764D03*
X0241800Y0148764D03*
X0246800Y0148764D03*
X0246800Y0169236D03*
X0241800Y0169236D03*
X0236800Y0169236D03*
X0231800Y0169236D03*
X0211800Y0061736D03*
X0206800Y0061736D03*
X0201800Y0061736D03*
X0196800Y0061736D03*
X0196800Y0041264D03*
X0201800Y0041264D03*
X0206800Y0041264D03*
X0211800Y0041264D03*
X0134300Y0113764D03*
X0129300Y0113764D03*
X0124300Y0113764D03*
X0119300Y0113764D03*
X0119300Y0134236D03*
X0124300Y0134236D03*
X0129300Y0134236D03*
X0134300Y0134236D03*
D15*
X0135800Y0198500D02*
X0135800Y0204500D01*
X0125800Y0204500D02*
X0125800Y0198500D01*
X0115800Y0198500D02*
X0115800Y0204500D01*
X0105800Y0204500D02*
X0105800Y0198500D01*
X0095800Y0198500D02*
X0095800Y0204500D01*
X0085800Y0204500D02*
X0085800Y0198500D01*
X0075800Y0198500D02*
X0075800Y0204500D01*
X0145800Y0204500D02*
X0145800Y0198500D01*
X0155800Y0198500D02*
X0155800Y0204500D01*
X0165800Y0204500D02*
X0165800Y0198500D01*
X0181800Y0198500D02*
X0181800Y0204500D01*
X0191800Y0204500D02*
X0191800Y0198500D01*
X0201800Y0198500D02*
X0201800Y0204500D01*
X0211800Y0204500D02*
X0211800Y0198500D01*
X0221800Y0198500D02*
X0221800Y0204500D01*
X0231800Y0204500D02*
X0231800Y0198500D01*
X0241800Y0198500D02*
X0241800Y0204500D01*
X0251800Y0204500D02*
X0251800Y0198500D01*
X0111800Y0062000D02*
X0111800Y0056000D01*
X0101800Y0056000D02*
X0101800Y0062000D01*
X0111800Y0014500D02*
X0111800Y0008500D01*
X0121800Y0008500D02*
X0121800Y0014500D01*
X0131800Y0014500D02*
X0131800Y0008500D01*
X0141800Y0008500D02*
X0141800Y0014500D01*
X0151800Y0014500D02*
X0151800Y0008500D01*
X0161800Y0008500D02*
X0161800Y0014500D01*
X0171800Y0014500D02*
X0171800Y0008500D01*
X0181800Y0008500D02*
X0181800Y0014500D01*
X0201800Y0014500D02*
X0201800Y0008500D01*
X0211800Y0008500D02*
X0211800Y0014500D01*
X0221800Y0014500D02*
X0221800Y0008500D01*
X0231800Y0008500D02*
X0231800Y0014500D01*
X0241800Y0014500D02*
X0241800Y0008500D01*
X0251800Y0008500D02*
X0251800Y0014500D01*
D16*
X0159800Y0133654D03*
X0159800Y0140346D03*
X0165954Y0156500D03*
X0172646Y0156500D03*
X0179954Y0156500D03*
X0186646Y0156500D03*
X0193454Y0156500D03*
X0200146Y0156500D03*
X0110146Y0076500D03*
X0103454Y0076500D03*
X0094300Y0090654D03*
X0094300Y0097346D03*
D17*
X0074300Y0149000D03*
X0074300Y0159000D03*
X0074300Y0169000D03*
X0064300Y0169000D03*
X0064300Y0159000D03*
X0064300Y0149000D03*
X0239300Y0184000D03*
X0252300Y0121500D03*
X0252300Y0111500D03*
X0252300Y0101500D03*
X0262300Y0101500D03*
X0262300Y0111500D03*
X0262300Y0121500D03*
D18*
X0151800Y0037346D03*
X0151800Y0030654D03*
D19*
X0150954Y0046500D03*
X0157646Y0046500D03*
D20*
X0157646Y0056500D03*
X0150954Y0056500D03*
X0150954Y0066500D03*
X0157646Y0066500D03*
X0181800Y0064846D03*
X0181800Y0058154D03*
X0230954Y0051500D03*
X0237646Y0051500D03*
X0237646Y0071500D03*
X0230954Y0071500D03*
X0236800Y0128154D03*
X0236800Y0134846D03*
X0132646Y0144000D03*
X0125954Y0144000D03*
D21*
X0200800Y0113000D03*
X0200800Y0110500D03*
X0200800Y0107900D03*
X0200800Y0105300D03*
X0200800Y0102800D03*
X0200800Y0100200D03*
X0200800Y0097700D03*
X0200800Y0095100D03*
X0200800Y0092500D03*
X0200800Y0090000D03*
X0227800Y0090000D03*
X0227800Y0092500D03*
X0227800Y0095100D03*
X0227800Y0097700D03*
X0227800Y0100200D03*
X0227800Y0102800D03*
X0227800Y0105300D03*
X0227800Y0107900D03*
X0227800Y0110500D03*
X0227800Y0113000D03*
D22*
X0231800Y0141500D03*
X0231800Y0176500D03*
X0226800Y0186500D03*
X0209300Y0186500D03*
X0251800Y0071100D03*
X0251800Y0051900D03*
D23*
X0158050Y0266500D03*
X0115550Y0266500D03*
D24*
X0094300Y0084000D03*
X0106800Y0084000D03*
X0116800Y0076500D03*
X0134300Y0104000D03*
X0166800Y0066500D03*
X0166800Y0051500D03*
X0192100Y0102800D03*
X0192800Y0109000D03*
X0201800Y0129000D03*
X0201800Y0144000D03*
X0159800Y0146500D03*
X0139300Y0144000D03*
X0224300Y0071500D03*
X0224300Y0051500D03*
X0219300Y0039000D03*
X0246800Y0141500D03*
X0246800Y0176500D03*
D25*
X0246800Y0131500D03*
X0210300Y0113000D03*
X0189300Y0090000D03*
X0164300Y0106500D03*
X0161800Y0089000D03*
X0141800Y0089000D03*
X0171300Y0124000D03*
X0237800Y0087500D03*
D26*
X0239300Y0101500D03*
D27*
X0159300Y0116000D03*
X0159300Y0124000D03*
X0156800Y0101500D03*
X0146800Y0101500D03*
X0129300Y0096500D03*
X0116800Y0091500D03*
X0116800Y0101500D03*
X0106800Y0111500D03*
D28*
X0209300Y0176500D03*
D29*
X0236800Y0269000D03*
X0036800Y0269000D03*
D30*
X0131800Y0224000D03*
X0141800Y0224000D03*
M02*
